<svg xmlns="http://www.w3.org/2000/svg" viewBox="0 0 441.18 786.09"><defs><style>.cls-1{fill:none;stroke:#000;stroke-miterlimit:10;stroke-width:0.75px;}</style></defs><title>Asset 2</title><g id="Layer_2" data-name="Layer 2"><g id="Layer_4" data-name="Layer 4"><path d="M67.11,476.79c0,3.77-3,6.67-8.89,10.18a41.85,41.85,0,0,1-21.49,6.16H1.4v-3.94H7.7V334.44a33.73,33.73,0,0,1-6.3.68v-4.58c14.13-.1,21.19-4.58,35.33-14.53,8.4-5.91,15.56-9.75,21.49-7.3s8.89,11.19,8.89,22.85ZM46.85,482.6V326.53c0-3.85-1-6.32-3-7.32s-4.37-.33-7.16,1.58c-3.51,2.39-5.27,3.52-8.78,5.54V489.19h8.78A12.35,12.35,0,0,0,43.89,487C45.87,485.64,46.85,484.15,46.85,482.6Z"/><path d="M159.78,512.17c-13.14-7.8-19.71-12-32.86-16.14v-3.82c2.52.77,3.78,1.22,6.3,2.19-1.82-17.7-2.74-22.12-4.57-42.67H110.5c-2,20.55-3,21.42-5.07,37.46,2.52,0,3.78-.08,6.3.08v3.9c-7.61-.34-11.41,0-19,0v-3.94H99c14.24-70.57,13.64-145.38,17.79-217h20.25c4.22,77.45,9.79,154.52,16.43,231.77,2.52,1.36,3.78,2.06,6.3,3.46Zm-31.37-64.89c-4.52-46-6.1-92.37-8.4-138.53-2.54,46.17-4.51,92.52-9.27,138.53Z"/><path d="M258.43,527.31c-3.51,1.22-5.26,1.8-8.77,2.82-11.86,3.46-17.79-2.72-17.79-26.53V424.1a9.8,9.8,0,0,0-3-7.17,10,10,0,0,0-7.17-3.25H213V527.13a51.18,51.18,0,0,0,6.3,1.07v5.93c-13.14-1.35-19.72-4.63-32.86-11.73v-5.5c2.52,1.28,3.78,1.9,6.3,3.06V275.75h-6.3V269.8h35.33c8.4,0,15.57,4.84,21.49,15.7s8.9,24.06,8.9,36.9v50.38c0,18.39-5.89,31.43-17.67,37.77,11.78,6.7,17.67,13.88,17.67,24.66v78c0,7.44,1.93,9.81,5.81,8.56l.49-.17ZM231.87,390.37V294.46c0-5.42-1-10-3-13.56s-4.37-5.15-7.17-5.15H213V407.51h8.77c2.8,0,5.19-1.48,7.17-4.71S231.87,395.47,231.87,390.37Z"/><path d="M354.93,508c-9.83-2.17-14.75-3-24.58-2.65-7.51-28.65-14.83-57.35-22.24-86v85.2c2.52-.67,3.78-1,6.3-1.52v4.5c-13.14,2.94-19.72,5.76-32.86,11v-5.12c2.52-.94,3.78-1.4,6.3-2.31V311.69c-2.52-1.89-3.78-2.85-6.3-4.8v-5.16c13.14,10.48,19.72,16.16,32.86,22v4.5c-2.52-1.11-3.78-1.74-6.3-3.11v84.24c8.89-25.77,18.49-51.19,27.79-76.8a34,34,0,0,1-6.3-.09V328c7.56.66,11.35-.07,18.91-1.73v4.57c-2.52.55-3.78.78-6.3,1.14-8.7,25.26-13,35.66-21.75,60.23,9.35,36.64,18.84,73.25,28.05,109.93,2.56.44,3.85.69,6.42,1.26Z"/><path d="M441.18,505a21.54,21.54,0,0,1-8.9,17.76c-5.93,4.47-13.09,5.69-21.49,3.42s-15.47-7.21-21.44-14.27-9-14.13-9-21.22v-151q0-10.62,9-22.12c6-7.66,13.12-13.34,21.44-16.27s15.56-2.12,21.49,2.17a21.06,21.06,0,0,1,8.9,17.62Zm-20.26,8.9V312.84a7.28,7.28,0,0,0-3-6.34c-2-1.4-4.36-1.63-7.16-.65a15,15,0,0,0-7.17,5.65,14.33,14.33,0,0,0-3,8.35V508.5a13.16,13.16,0,0,0,3,8.08,13.4,13.4,0,0,0,7.17,5,7.66,7.66,0,0,0,10.13-7.71Z"/><path d="M305.36,540.15a0,0,0,0,0,0,0v-.1Z"/><polyline class="cls-1" points="118.97 250.33 119.94 240.6 121.43 225.83 122.89 211.04 123.08 209.07 123.25 211.04 124.52 225.83 125.76 240.62 126.58 250.33"/><path class="cls-1" d="M211.44,119.05l0,14.79,0,14.78-.05,14,8.77,0a10.11,10.11,0,0,0,10.16-10.1l0-3.82,0-14.79,0-14.78,0-14.78,0-8.28A9.71,9.71,0,0,0,228,89.54c-.19-.22-.34-.45-.55-.67a9.77,9.77,0,0,0-7.15-3l-8.78,0v3.63l0,14.78Z"/><path class="cls-1" d="M211.07,250.33l0-9.47,0-14.76.05-14.79,0-14.79,0-3.63,8.76,0a9.89,9.89,0,0,1,7.17,3c.2.22.34.44.54.66a9.73,9.73,0,0,1,2.41,6.52l0,8.27L230,240.94l0,10.17"/><path class="cls-1" d="M46.19,654.49l0,14.79,0,14.78,0,14.78,0,14.78L46,720a9.79,9.79,0,0,1-3,7.16,10.78,10.78,0,0,1-1.45,1.19,9.64,9.64,0,0,1-5.72,1.75l-8.77,0v-1.77l.05-14.78,0-14.78L27.21,684l0-14.78,0-14.78.05-14.79-20.26-.06,0,14.79,0,14.78,0,14.78,0,14.78,0,14.79-.05,14.78v1.76H.51l0,4.57,35.33.1a32.14,32.14,0,0,0,19.9-6.27c.55-.41,1.09-.81,1.62-1.26a23.93,23.93,0,0,0,8.45-13.5,23.24,23.24,0,0,0,.5-4.69l0-10.09,0-14.78,0-14.78,0-14.79,0-14.78-20.26-.06Z"/><path class="cls-1" d="M415.39,655.6l-.05,14.79,0,14.78,0,14.78-.05,14.79,0,7.65a9.77,9.77,0,0,1-3,7.12l0,0a10.13,10.13,0,0,1-14.33,0l0,0a9.76,9.76,0,0,1-2.91-7.14l0-7.66.05-14.78,0-14.78,0-14.78,0-14.79,0-14.78-20.25-.06-.05,14.78,0,14.79-.05,14.78,0,14.78,0,11.32a23.08,23.08,0,0,0,.28,3.46c.81,5.62,3.67,10.56,8.62,14.79l0,0a34.1,34.1,0,0,0,42.86.13l0,0c5-4.21,7.82-9.12,8.66-14.73a23.2,23.2,0,0,0,.29-3.47l0-11.32.05-14.78,0-14.78,0-14.78,0-14.79-20.26-.06Z"/><polygon class="cls-1" points="152.43 728.73 151.07 713.94 149.71 699.15 148.34 684.37 146.98 669.58 145.62 654.79 144.26 640.01 124.75 639.95 126 654.73 127.26 669.52 127.69 674.58 110.02 674.53 110.53 669.47 112 654.69 113.48 639.91 107.72 639.9 106.15 654.67 104.58 669.45 103.01 684.23 101.44 699.01 99.87 713.79 98.31 728.57 98.12 730.33 91.82 730.31 91.8 734.88 110.83 734.94 110.84 730.37 104.54 730.35 104.72 728.58 106.22 713.81 107.72 699.03 109.22 684.25 109.76 678.98 127.92 679.03 128.37 684.31 129.64 699.09 130.91 713.88 132.19 728.67 132.34 730.43 126.04 730.41 126.02 734.98 158.88 735.08 158.9 730.51 152.59 730.49 152.43 728.73"/><path class="cls-1" d="M247.79,729a7.7,7.7,0,0,1-1.39-5l0-9.75.05-14.78,0-14.79.05-14.78V665.3a23.64,23.64,0,0,0-2.17-10.21c-2.66-5.7-7.77-10.19-15.42-13.43,1.09-.43,2.08-.91,3.08-1.39l-44.83-.13,0,14.78,0,14.78,0,14.78,0,14.79,0,14.78,0,14.78v1.77l-6.3,0,0,4.57,32.86.1,0-4.57-6.3,0v-1.77l.05-14.78,0-14.78,0-14.79.05-14.78,0-14.78,0-11,8.77,0a10.14,10.14,0,0,1,10.1,10.16V655l0,14.78-.05,14.78,0,14.78,0,14.79v2.59c0,5.13,1,9.19,3.06,12.2,2.86,4.22,7.75,6.36,14.67,6.38l8.77,0v-4.57h-.49A5.33,5.33,0,0,1,247.79,729Z"/><polygon class="cls-1" points="342.3 729.3 338.5 714.5 334.71 699.71 330.91 684.92 327.12 670.12 323.32 655.33 319.53 640.53 282.37 640.42 282.32 655.2 282.28 669.99 282.24 684.77 282.19 699.55 282.15 714.34 282.1 729.12 282.1 730.88 275.8 730.86 275.78 735.43 308.64 735.53 308.66 730.96 302.36 730.94 302.36 729.18 302.4 714.4 302.45 699.61 302.49 684.83 302.54 670.05 302.58 655.26 302.6 649.54 304.06 655.27 307.84 670.06 311.62 684.86 315.4 699.65 319.18 714.45 322.96 729.24 324.58 735.58 349.16 735.65 349.17 731.09 342.75 731.07 342.3 729.3"/><path class="cls-1" d="M69.27,513.64v1.89l0,14.77,0,14.79,0,14.79-.05,14.77,0,14.79,0,10.07a23.69,23.69,0,0,1-.51,4.72q-1.58,7.62-8.44,13.47c-.54.47-1.07.85-1.63,1.27a32.2,32.2,0,0,1-19.9,6.27l-35.32-.09,0-4.58,6.3,0v-1.78L9.6,604l0-14.76.05-14.79.05-14.79,0-14.77.05-14.79,0-10.24H30.11l0,10.29L30,545l0,14.79,0,14.76-.05,14.79-.05,14.79,0,14.77,0,1.78,8.78,0a9.68,9.68,0,0,0,5.72-1.75,9.51,9.51,0,0,0,1.46-1.19,9.86,9.86,0,0,0,3-7.15v-6.43l0-14.79.05-14.76,0-14.79,0-14.79,0-14.77,0-10.8A65.7,65.7,0,0,0,69.27,513.64Z"/><path class="cls-1" d="M438.35,552.17l0,8.8,0,14.79-.05,14.8-.05,11.31a22.83,22.83,0,0,1-.29,3.45q-1.23,8.43-8.66,14.74s0,0,0,0a34.19,34.19,0,0,1-42.86-.12,0,0,0,0,0,0,0c-5-4.23-7.81-9.17-8.63-14.79a22.19,22.19,0,0,1-.27-3.48l0-11.31.05-14.79.05-14.77.05-14.79v-3.3l0-3.09c.54.51,1.07,1,1.63,1.43a64.52,64.52,0,0,0,18.59,11.29l0,8.51-.05,14.79,0,14.79-.05,14.77,0,7.66a9.81,9.81,0,0,0,2.92,7.13s0,0,0,0a9.86,9.86,0,0,0,7.17,3,9.72,9.72,0,0,0,7.15-2.94L415,620a9.76,9.76,0,0,0,2.95-7.13l0-7.64.05-14.79.05-14.79,0-14.76V556.5h.58A46.5,46.5,0,0,0,438.35,552.17Z"/><path class="cls-1" d="M161.64,621l0,4.57-32.86-.1,0-4.57,6.3,0-.14-1.77-1.29-14.77-1.27-14.79-1.26-14.79-.46-5.28-18.15,0-.54,5.28-1.5,14.77L109,604.35l-1.49,14.76-.19,1.78h6.3v4.57l-19-.05v-4.57l6.3,0,.19-1.78,1.56-14.77,1.58-14.79,1.56-14.76L107.32,560l1.56-14.77,1.58-14.79,1.12-10.63c1.19,0,2.48.05,3.94.12l1.72.07-1,10.46-1.46,14.8L113.25,560l-.51,5.06,17.69.05-.44-5.06-1.24-14.79-1.27-14.79-.68-8c7.37,2.53,11.92,5.06,20.36,10.07l1.2,12.82,1.36,14.79,1.36,14.77,2.73,29.58,1.36,14.79.17,1.78Z"/><path class="cls-1" d="M216.25,621.21l0,4.57-32.84-.1v-4.57l6.3,0v-1.77l.05-14.77,0-14.79.05-14.79,0-14.77v-4a81,81,0,0,0,20.24,6l0,12.79,0,14.77L210,604.64,210,619.43v1.75Z"/><path class="cls-1" d="M255.42,621.33l0,4.57-8.75,0c-6.94,0-11.83-2.17-14.7-6.38q-3.06-4.51-3-12.21v-2.6l0-14.77.05-14.79,0-10.68,14.57,1.49V560.2a5.82,5.82,0,0,0,.59,0,40.48,40.48,0,0,0,5.11-.34v.53l0,14.8,0,14.76-.05,14.79,0,9.76a7.7,7.7,0,0,0,1.41,5,5.32,5.32,0,0,0,4.38,1.78Z"/><path class="cls-1" d="M311.39,621.5l0,4.57-32.84-.1V621.4l6.3,0v-1.78l.05-14.79,0-14.77L285,575.3l0-14.79,0-12.43,8.61-3.4c4.72-1.88,8.29-3.31,11.67-4.5l0,5.61-.05,14.8,0,14.76-.05,14.79-.05,14.79-.05,14.79v1.75Z"/><path class="cls-1" d="M351.89,621.62v4.57l-24.59-.07-1.6-6.35L321.9,605l-3.77-14.79-3.77-14.79-3.8-14.81-3.77-14.8-1.43-5.64a115.54,115.54,0,0,1,14.35-4.09l3.63-.8,2.72,10.61,3.8,14.79,3.79,14.79,3.79,14.79,3.8,14.79,3.8,14.79.43,1.78Z"/><path class="cls-1" d="M45.9,762.28l0,6.41a9.73,9.73,0,0,1-3,7.16,10.65,10.65,0,0,1-1.44,1.2,9.73,9.73,0,0,1-5.73,1.74l-8.77,0V777L27,762.22l0-14.78-20.26-.06,0,14.78,0,14.78v1.77l-6.3,0v4.57l35.33.1a32.11,32.11,0,0,0,19.89-6.27c.55-.41,1.1-.81,1.62-1.26,4.59-3.89,6.78-5.12,7.84-10.22.32-1.52,0-15.41,0-17H45.6Z"/><path class="cls-1" d="M415.09,763.39l0,7.65a9.75,9.75,0,0,1-3,7.12s0,0,0,0a10.14,10.14,0,0,1-14.33-.05l0,0a9.75,9.75,0,0,1-2.92-7.14l0-7.65.05-14.79-20.26-.06,0,11.32a22,22,0,0,0,.27,3.47c.81,5.61,3.67,10.55,8.63,14.78l0,0a34.14,34.14,0,0,0,42.86.13l0,0c4.95-4.2,7.82-9.12,8.66-14.73a23.2,23.2,0,0,0,.29-3.47l0-11.31-20.26-.06Z"/><polygon class="cls-1" points="152.31 777.38 150.95 762.59 149.59 747.81 129.53 747.75 130.8 762.53 132.07 777.32 132.22 779.08 125.92 779.07 125.91 783.64 158.76 783.74 158.78 779.16 152.48 779.14 152.31 777.38"/><polygon class="cls-1" points="104.6 777.24 106.11 762.46 107.61 747.68 101.33 747.66 99.76 762.44 98.19 777.22 98 778.98 91.7 778.96 91.69 783.53 110.71 783.59 110.72 779.02 104.42 779 104.6 777.24"/><polygon class="cls-1" points="207.1 777.54 207.15 762.76 207.19 747.98 186.93 747.92 186.89 762.7 186.84 777.48 186.84 779.25 180.54 779.23 180.53 783.8 213.38 783.9 213.4 779.33 207.1 779.31 207.1 777.54"/><path class="cls-1" d="M247.67,777.67a7.75,7.75,0,0,1-1.39-5l0-9.75,0-14.78L226.09,748l0,14.78v2.59c0,5.14,1,9.19,3.06,12.2,2.87,4.22,7.75,6.36,14.67,6.38l8.77,0,0-4.57h-.5A5.39,5.39,0,0,1,247.67,777.67Z"/><polygon class="cls-1" points="302.24 777.83 302.29 763.05 302.33 748.27 282.07 748.21 282.03 762.99 281.99 777.77 281.98 779.53 275.68 779.52 275.67 784.09 308.52 784.19 308.54 779.62 302.24 779.6 302.24 777.83"/><polygon class="cls-1" points="342.18 777.95 338.38 763.16 334.59 748.36 315.28 748.3 319.06 763.1 322.84 777.89 324.46 784.23 349.04 784.31 349.06 779.74 342.63 779.72 342.18 777.95"/><path class="cls-1" d="M11.13,88.89l-.05,14.78,0,14.78,0,14.78L11,148l0,14.78,0,14.78,20.26.06,0-14.78.05-14.78,0-14.78.05-14.79,0-14.78,0-14.78,0-3.63,8.77,0a9.73,9.73,0,0,1,7.15,3c.21.21.36.45.55.67a9.77,9.77,0,0,1,2.4,6.51l0,8.28,0,14.78-.05,14.78,0,14.79,0,14.78,0,14.78,20.26.06,0-14.78.05-14.78,0-14.79,0-14.78,0-11.94a24.07,24.07,0,0,0-.17-2.84C69.67,98.23,67,93.3,62.29,89c-.22-.2-.41-.41-.64-.6a31.9,31.9,0,0,0-21.47-7.66L4.85,80.67v4.57l6.3,0Z"/><path class="cls-1" d="M191.27,89.43l0,14.78,0,14.78-.05,14.79,0,14.78,0,14.78,0,14.79,20.26.06,0-11,8.77,0a10.12,10.12,0,0,1,10.1,10.16v.91l18.06.06c-2.66-5.7-7.77-10.2-15.43-13.44,1.1-.42,2.09-.9,3.08-1.38,7.17-3.47,11.73-8.37,13.62-14.74a25.83,25.83,0,0,0,1-7.29l0-7.49,0-14.79,0-11.94a24.07,24.07,0,0,0-.17-2.84c-.65-5.62-3.34-10.55-8-14.81-.22-.2-.41-.4-.64-.6a32,32,0,0,0-21.47-7.66L185,81.21v4.57l6.3,0Zm20.27-3.57,8.78,0a9.77,9.77,0,0,1,7.15,3c.21.22.36.45.55.67a9.71,9.71,0,0,1,2.39,6.51l0,8.28,0,14.78,0,14.78,0,14.79,0,3.82a10.11,10.11,0,0,1-10.16,10.1l-8.77,0,.05-14,0-14.78,0-14.79.05-14.78,0-14.78Z"/><polygon class="cls-1" points="286.42 89.71 286.37 104.5 286.33 119.28 286.28 134.06 286.24 148.85 286.19 163.63 286.15 178.41 306.41 178.47 306.42 172.74 307.89 178.48 327.15 178.53 323.35 163.74 319.56 148.95 318.86 146.22 323.26 134.17 328.66 119.41 334.06 104.64 339.45 89.87 340.78 86.25 347.08 86.27 347.09 81.7 328.19 81.64 328.18 86.21 334.48 86.23 333.15 89.86 327.75 104.62 322.35 119.39 316.95 134.16 311.55 148.92 306.45 162.86 306.5 148.91 306.54 134.12 306.58 119.34 306.63 104.56 306.67 89.78 306.69 86.15 312.99 86.17 313 81.6 280.14 81.5 280.13 86.07 286.43 86.09 286.42 89.71"/><polygon class="cls-1" points="117.3 163.12 118.78 148.34 120.25 133.56 121.73 118.78 123.2 104.01 123.4 102.03 123.57 104.01 124.82 118.79 126.07 133.58 127.32 148.37 128.58 163.15 129.83 177.94 149.44 178 148.08 163.21 146.72 148.43 145.35 133.64 143.99 118.85 142.63 104.06 141.26 89.28 140.51 81.08 120.25 81.02 119.38 89.21 117.81 103.99 116.24 118.77 114.67 133.55 113.11 148.32 111.54 163.1 109.97 177.88 115.83 177.9 117.3 163.12"/><path class="cls-1" d="M399,164l0-14.78,0-14.79,0-14.78.05-14.78,0-9.52a9.74,9.74,0,0,1,1.51-5.26,10.09,10.09,0,0,1,1.48-1.89,10.13,10.13,0,0,1,14.33,0,10.09,10.09,0,0,1,1.47,1.9,9.68,9.68,0,0,1,1.47,5.27l0,9.52-.05,14.78,0,14.78-.05,14.79,0,14.78-.05,14.78,20.26.06,0-14.78,0-14.78.05-14.79,0-14.78,0-13.18c0-.54-.05-1.07-.08-1.6a22.63,22.63,0,0,0-6.8-14.8c-.61-.63-1.26-1.25-2-1.85a34.13,34.13,0,0,0-42.93-.13q-1.05.9-2,1.83A22.6,22.6,0,0,0,379,104.78c0,.53-.09,1-.09,1.6l0,13.18,0,14.78-.05,14.78,0,14.79-.05,14.78,20.26.06Z"/><path class="cls-1" d="M70.17,213.72l0,11.94-.1,29.58L70,270l0,14.79v3a34.27,34.27,0,0,0-10.78-1.73,36.9,36.9,0,0,0-9.49,1.24v-2.57l0-14.77.05-14.79,0-14.79,0-14.77,0-14.79,0-8.27A9.84,9.84,0,0,0,47.57,196a7,7,0,0,0-.56-.66,9.69,9.69,0,0,0-7.15-3l-8.78,0V196l0,14.79L31,225.54l-.05,14.79,0,14.79-.05,14.77-.05,14.79,0,11.7c-1.07.7-2.11,1.43-3.16,2.16-9.83,6.91-13.4,9.1-17.12,9.81l0-9,.05-14.76,0-14.79.05-14.79,0-14.77,0-14.79,0-14.79.05-14.79,0-3.62H4.54v-4.58l35.32.1a31.94,31.94,0,0,1,21.48,7.66c.22.2.42.42.63.61,4.7,4.26,7.4,9.2,8.06,14.79A22.39,22.39,0,0,1,70.17,213.72Z"/><path class="cls-1" d="M250.16,211.43q-1-8.43-8-14.81c-.21-.2-.41-.42-.63-.61A32,32,0,0,0,220,188.34l-35.32-.09,0,4.57,6.3,0v3.63l0,14.77L190.88,226l0,14.79,0,9.51h20.26l0-9.47,0-14.76.05-14.79,0-14.79,0-3.63,8.76,0a9.89,9.89,0,0,1,7.17,3c.2.22.34.44.54.66a9.73,9.73,0,0,1,2.41,6.52l0,8.27L230,240.94l0,10.17A44.41,44.41,0,0,1,248,259a22.46,22.46,0,0,0,1.24-3.21,27,27,0,0,0,1.05-7.3l0-7.49.05-14.79,0-11.95A26.2,26.2,0,0,0,250.16,211.43Z"/><path class="cls-1" d="M346.79,188.73l0,4.58-6.3,0-1.31,3.63-5.4,14.76-5.4,14.77L323,241.21l-4.41,12,.71,2.72L323,270.79l7.59,29.58,2.14,8.32-1-.08-3.09-.26-4.31-2A71.76,71.76,0,0,1,311,298.71l-3.38-13.21-1.46-5.71,0,5.71,0,9.52-6.17-4.92-14-11.19,0-8.25.05-14.79.05-14.76,0-14.79.05-14.79.05-14.77v-3.65h-6.3l0-4.57,32.84.1v4.57l-6.3,0,0,3.62,0,14.79-.05,14.77,0,14.79,0,14.79-.05,13.94L311.25,256l5.4-14.77,5.4-14.76,5.4-14.77,5.4-14.77,1.31-3.62h-6.3l0-4.57Z"/><path class="cls-1" d="M145.05,240.67l-1.36-14.79-1.37-14.79L141,196.32l-.75-8.22-20.27,0-.87,8.2L117.51,211l-1.58,14.79-1.56,14.76-1,9.76H119l1-9.73,1.49-14.77L122.89,211l.19-2,.17,2,1.27,14.79,1.24,14.79.83,9.71H146Z"/><path class="cls-1" d="M439.37,213.6l0,13.18-.05,14.79-.05,14.77-.05,14.79-.05,13.13a44.59,44.59,0,0,0-18.95-4.18c-.43,0-.85,0-1.29,0l0-9.05.05-14.76.09-29.58.05-14.77,0-9.51a10,10,0,0,0-1.46-5.28,10.3,10.3,0,0,0-1.49-1.9,10.13,10.13,0,0,0-14.32-.05,10.3,10.3,0,0,0-1.49,1.9,9.74,9.74,0,0,0-1.51,5.26l0,9.51-.05,14.79-.05,14.79,0,14.76,0,14.8-.05,13.79a67.73,67.73,0,0,0-20.31,13.6l.05-12.68,0-14.79.05-14.76,0-14.79,0-14.79.05-13.16c0-.56,0-1.08.09-1.61a22.55,22.55,0,0,1,6.94-14.77,21.55,21.55,0,0,1,2-1.82,34.11,34.11,0,0,1,42.93.12c.71.61,1.34,1.22,2,1.85A22.62,22.62,0,0,1,439.3,212C439.32,212.52,439.37,213.06,439.37,213.6Z"/><path class="cls-1" d="M11.34,8.61l-.05,14.78,0,14.79L11.2,53l0,14.78,20.26.06,0-14.78.05-14.78,0-14.79L31.6,8.67V5l8.77,0a9.73,9.73,0,0,1,7.15,3,8.36,8.36,0,0,1,.55.66,9.67,9.67,0,0,1,2.4,6.51l0,8.28,0,14.78,0,14.79,0,14.78,20.26.06,0-14.78,0-14.79,0-11.94a22.11,22.11,0,0,0-.17-2.84q-1-8.43-8-14.81c-.22-.2-.42-.4-.65-.6A32,32,0,0,0,40.39.5L5.06.39V5l6.3,0Z"/><path class="cls-1" d="M191.49,9.15l-.05,14.78,0,14.79-.05,14.78,0,14.78,20.26.06,0-14.78,0-14.78,0-14.78.05-14.79V5.59l8.77,0a9.77,9.77,0,0,1,7.15,3,8.36,8.36,0,0,1,.55.66,9.72,9.72,0,0,1,2.4,6.51l0,8.28,0,14.79-.05,14.78,0,14.78v3.83l19.25-3.77a25.73,25.73,0,0,0,1-7.29l0-7.49,0-14.78,0-11.95a22.21,22.21,0,0,0-.17-2.84c-.65-5.62-3.34-10.55-8-14.8-.21-.2-.41-.41-.64-.61A32,32,0,0,0,220.54,1L185.21.94V5.51h6.3Z"/><polygon class="cls-1" points="286.63 9.44 286.58 24.22 286.54 39 286.49 53.79 286.45 68.57 306.71 68.63 306.75 53.85 306.8 39.06 306.84 24.28 306.89 9.5 306.9 5.87 313.2 5.89 313.21 1.32 280.35 1.22 280.34 5.79 286.64 5.81 286.63 9.44"/><polygon class="cls-1" points="120.46 53.29 121.94 38.51 123.41 23.73 123.61 21.75 123.78 23.73 125.03 38.52 126.28 53.3 127.54 68.09 146.93 68.15 145.56 53.36 144.2 38.58 142.84 23.79 141.48 9 140.72 0.8 120.46 0.74 119.59 8.94 118.02 23.71 116.46 38.49 114.89 53.27 113.32 68.05 118.99 68.06 120.46 53.29"/><polygon class="cls-1" points="319.77 68.67 319.07 65.95 323.47 53.9 328.87 39.13 334.27 24.36 339.67 9.6 340.99 5.97 347.29 5.99 347.31 1.42 328.41 1.37 328.39 5.94 334.69 5.96 333.37 9.58 327.97 24.34 322.56 39.11 317.17 53.88 311.76 68.65 319.77 68.67"/><path class="cls-1" d="M399.3,54.13l0-14.79.05-14.78,0-9.52a9.67,9.67,0,0,1,1.5-5.26,10.42,10.42,0,0,1,1.48-1.89,10.15,10.15,0,0,1,14.33,0,11.34,11.34,0,0,1,1.48,1.9,9.89,9.89,0,0,1,1.47,5.28l0,9.51,0,14.78,0,14.79L419.51,69l20.26.06.05-14.78,0-14.78,0-13.19c0-.54,0-1.07-.08-1.6A22.63,22.63,0,0,0,433,9.88c-.61-.63-1.26-1.24-2-1.84a34.12,34.12,0,0,0-42.92-.13,27,27,0,0,0-2,1.83,22.51,22.51,0,0,0-6.93,14.76c0,.53-.09,1.06-.1,1.6l0,13.18,0,14.79,0,14.78,20.25.06Z"/></g></g></svg>