<?xml version="1.0" encoding="utf-8"?>
<!-- Generator: Adobe Illustrator 23.0.1, SVG Export Plug-In . SVG Version: 6.00 Build 0)  -->
<svg version="1.1" id="Layer_1" xmlns="http://www.w3.org/2000/svg" xmlns:xlink="http://www.w3.org/1999/xlink" x="0px" y="0px"
	 viewBox="0 0 1920 1080" style="enable-background:new 0 0 1920 1080;" xml:space="preserve">
<style type="text/css">
	.st0{fill:none;stroke:#000000;stroke-miterlimit:10;}
</style>
<g>
	<g>
		<g>
			<g>
				<path class="st0" d="M920.5,963c7.5,0,11.3,0,18.8,0c11.1-0.6,18.3,8,17.7,18.7c0,12.7,0,25.5,0,38.2
					c0.6,10.7-6.7,19.3-17.7,18.7c-7.5,0-11.3,0-18.8,0C920.5,1013.4,920.5,988.2,920.5,963z M932.4,973.8c0,18,0,36,0,54
					c2.7,0,4,0,6.7,0c3.8,0,6-1.9,6-7.3c0-13.1,0-26.2,0-39.3c0-5.4-2.3-7.3-6-7.3C936.4,973.8,935.1,973.8,932.4,973.8z"/>
				<path class="st0" d="M1010.8,1038.6c-4.8,0-7.2,0-12,0c-0.8-5.5-1.2-8.2-2.1-13.7c-5.8,0-8.7,0-14.6,0
					c-0.8,5.5-1.2,8.2-2.1,13.7c-4.4,0-6.5,0-10.9,0c4-25.2,8.1-50.4,12.1-75.6c7,0,10.4,0,17.4,0
					C1002.7,988.2,1006.8,1013.4,1010.8,1038.6z M983.7,1014.7c4.6,0,6.9,0,11.4,0c-1.9-12.7-3.7-25.5-5.6-38.2c-0.1,0-0.1,0-0.2,0
					C987.4,989.2,985.6,1001.9,983.7,1014.7z"/>
				<path class="st0" d="M1049,1038.6c-0.6-1.9-1.1-3.1-1.1-9.3c0-4.8,0-7.1,0-11.9c0-7-2.4-9.6-7.8-9.6c-1.6,0-2.5,0-4.1,0
					c0,10.3,0,20.5,0,30.8c-4.8,0-7.1,0-11.9,0c0-25.2,0-50.4,0-75.6c7.2,0,10.8,0,17.9,0c10.7-0.8,18.3,6.7,17.6,17.4
					c0,2.4,0,3.6,0,5.9c0,7.8-2.5,12.7-7.8,15.2c0,0.1,0,0.1,0,0.2c5.9,2.5,7.9,8.1,7.9,16c0,4.7,0,7,0,11.7c0,3.7,0.1,6.4,1.3,9.2
					C1056.3,1038.6,1053.9,1038.6,1049,1038.6z M1036.1,973.8c0,9.3,0,13.9,0,23.2c1.9,0,2.8,0,4.6,0c4.4,0,7.1-1.9,7.1-8
					c0-3,0-4.5,0-7.5c0-5.4-1.8-7.8-6-7.8C1039.5,973.8,1038.3,973.8,1036.1,973.8z"/>
				<path class="st0" d="M1091,1008.5c-1.5,2.8-2.2,4.1-3.7,6.9c0,9.3,0,13.9,0,23.2c-4.8,0-7.1,0-11.9,0c0-25.2,0-50.4,0-75.6
					c4.8,0,7.1,0,11.9,0c0,10.9,0,21.8,0,32.7c0.1,0,0.1,0,0.2,0c5.1-10.9,10.2-21.8,15.3-32.7c4.8,0,7.1,0,11.9,0
					c-5.5,11.2-11,22.5-16.5,33.7c5.5,14,11,27.9,16.5,41.9c-4.9,0-7.3,0-12.2,0C1098.7,1028.6,1094.9,1018.5,1091,1008.5z"/>
				<path class="st0" d="M1126.3,981.2c-0.5-10.8,7.4-19,18-19c10.6,0,18.5,8.2,18,19c0,13.1,0,26.2,0,39.3c0.5,10.8-7.4,19-18,19
					c-10.6,0-18.5-8.2-18-19C1126.3,1007.4,1126.3,994.3,1126.3,981.2z M1138.2,1021.2c0,5.4,2.4,7.5,6.2,7.5c3.8,0,6.2-2.1,6.2-7.5
					c0-13.6,0-27.2,0-40.8c0-5.4-2.4-7.5-6.2-7.5c-3.8,0-6.2,2.1-6.2,7.5C1138.2,994,1138.2,1007.6,1138.2,1021.2z"/>
			</g>
		</g>
		<g>
			<g>
				<path class="st0" d="M920.5,878c7.5,0,11.3,0,18.8,0c11.1-0.6,18.3,8,17.7,18.7c0,12.7,0,25.5,0,38.2
					c0.6,10.7-6.7,19.3-17.7,18.7c-7.5,0-11.3,0-18.8,0C920.5,928.4,920.5,903.2,920.5,878z M932.4,888.8c0,18,0,36,0,54
					c2.7,0,4,0,6.7,0c3.8,0,6-1.9,6-7.3c0-13.1,0-26.2,0-39.3c0-5.4-2.3-7.3-6-7.3C936.4,888.8,935.1,888.8,932.4,888.8z"/>
				<path class="st0" d="M1010.8,953.6c-4.8,0-7.2,0-12,0c-0.8-5.5-1.2-8.2-2.1-13.7c-5.8,0-8.7,0-14.6,0c-0.8,5.5-1.2,8.2-2.1,13.7
					c-4.4,0-6.5,0-10.9,0c4-25.2,8.1-50.4,12.1-75.6c7,0,10.4,0,17.4,0C1002.7,903.2,1006.8,928.4,1010.8,953.6z M983.7,929.7
					c4.6,0,6.9,0,11.4,0c-1.9-12.7-3.7-25.5-5.6-38.2c-0.1,0-0.1,0-0.2,0C987.4,904.2,985.6,916.9,983.7,929.7z"/>
				<path class="st0" d="M1049,953.6c-0.6-1.9-1.1-3.1-1.1-9.3c0-4.8,0-7.1,0-11.9c0-7-2.4-9.6-7.8-9.6c-1.6,0-2.5,0-4.1,0
					c0,10.3,0,20.5,0,30.8c-4.8,0-7.1,0-11.9,0c0-25.2,0-50.4,0-75.6c7.2,0,10.8,0,17.9,0c10.7-0.8,18.3,6.7,17.6,17.4
					c0,2.4,0,3.6,0,5.9c0,7.8-2.5,12.7-7.8,15.2c0,0.1,0,0.1,0,0.2c5.9,2.5,7.9,8.1,7.9,16c0,4.7,0,7,0,11.7c0,3.7,0.1,6.4,1.3,9.2
					C1056.3,953.6,1053.9,953.6,1049,953.6z M1036.1,888.8c0,9.3,0,13.9,0,23.2c1.9,0,2.8,0,4.6,0c4.4,0,7.1-1.9,7.1-8
					c0-3,0-4.5,0-7.5c0-5.4-1.8-7.8-6-7.8C1039.5,888.8,1038.3,888.8,1036.1,888.8z"/>
				<path class="st0" d="M1091,923.5c-1.5,2.8-2.2,4.1-3.7,6.9c0,9.3,0,13.9,0,23.2c-4.8,0-7.1,0-11.9,0c0-25.2,0-50.4,0-75.6
					c4.8,0,7.1,0,11.9,0c0,10.9,0,21.8,0,32.7c0.1,0,0.1,0,0.2,0c5.1-10.9,10.2-21.8,15.3-32.7c4.8,0,7.1,0,11.9,0
					c-5.5,11.2-11,22.5-16.5,33.7c5.5,14,11,27.9,16.5,41.9c-4.9,0-7.3,0-12.2,0C1098.7,943.6,1094.9,933.5,1091,923.5z"/>
				<path class="st0" d="M1126.3,896.2c-0.5-10.8,7.4-19,18-19c10.6,0,18.5,8.2,18,19c0,13.1,0,26.2,0,39.3c0.5,10.8-7.4,19-18,19
					c-10.6,0-18.5-8.2-18-19C1126.3,922.4,1126.3,909.3,1126.3,896.2z M1138.2,936.2c0,5.4,2.4,7.5,6.2,7.5c3.8,0,6.2-2.1,6.2-7.5
					c0-13.6,0-27.2,0-40.8c0-5.4-2.4-7.5-6.2-7.5c-3.8,0-6.2,2.1-6.2,7.5C1138.2,909,1138.2,922.6,1138.2,936.2z"/>
			</g>
		</g>
		<g>
			<g>
				<path class="st0" d="M920.5,793c7.5,0,11.3,0,18.8,0c11.1-0.6,18.3,8,17.7,18.7c0,12.7,0,25.5,0,38.2
					c0.6,10.7-6.7,19.3-17.7,18.7c-7.5,0-11.3,0-18.8,0C920.5,843.4,920.5,818.2,920.5,793z M932.4,803.8c0,18,0,36,0,54
					c2.7,0,4,0,6.7,0c3.8,0,6-1.9,6-7.3c0-13.1,0-26.2,0-39.3c0-5.4-2.3-7.3-6-7.3C936.4,803.8,935.1,803.8,932.4,803.8z"/>
				<path class="st0" d="M1010.8,868.6c-4.8,0-7.2,0-12,0c-0.8-5.5-1.2-8.2-2.1-13.7c-5.8,0-8.7,0-14.6,0c-0.8,5.5-1.2,8.2-2.1,13.7
					c-4.4,0-6.5,0-10.9,0c4-25.2,8.1-50.4,12.1-75.6c7,0,10.4,0,17.4,0C1002.7,818.2,1006.8,843.4,1010.8,868.6z M983.7,844.7
					c4.6,0,6.9,0,11.4,0c-1.9-12.7-3.7-25.5-5.6-38.2c-0.1,0-0.1,0-0.2,0C987.4,819.2,985.6,831.9,983.7,844.7z"/>
				<path class="st0" d="M1049,868.6c-0.6-1.9-1.1-3.1-1.1-9.3c0-4.8,0-7.1,0-11.9c0-7-2.4-9.6-7.8-9.6c-1.6,0-2.5,0-4.1,0
					c0,10.3,0,20.5,0,30.8c-4.8,0-7.1,0-11.9,0c0-25.2,0-50.4,0-75.6c7.2,0,10.8,0,17.9,0c10.7-0.8,18.3,6.7,17.6,17.4
					c0,2.4,0,3.6,0,5.9c0,7.8-2.5,12.7-7.8,15.2c0,0.1,0,0.1,0,0.2c5.9,2.5,7.9,8.1,7.9,16c0,4.7,0,7,0,11.7c0,3.7,0.1,6.4,1.3,9.2
					C1056.3,868.6,1053.9,868.6,1049,868.6z M1036.1,803.8c0,9.3,0,13.9,0,23.2c1.9,0,2.8,0,4.6,0c4.4,0,7.1-1.9,7.1-8
					c0-3,0-4.5,0-7.5c0-5.4-1.8-7.8-6-7.8C1039.5,803.8,1038.3,803.8,1036.1,803.8z"/>
				<path class="st0" d="M1091,838.5c-1.5,2.8-2.2,4.1-3.7,6.9c0,9.3,0,13.9,0,23.2c-4.8,0-7.1,0-11.9,0c0-25.2,0-50.4,0-75.6
					c4.8,0,7.1,0,11.9,0c0,10.9,0,21.8,0,32.7c0.1,0,0.1,0,0.2,0c5.1-10.9,10.2-21.8,15.3-32.7c4.8,0,7.1,0,11.9,0
					c-5.5,11.2-11,22.5-16.5,33.7c5.5,14,11,27.9,16.5,41.9c-4.9,0-7.3,0-12.2,0C1098.7,858.6,1094.9,848.5,1091,838.5z"/>
				<path class="st0" d="M1126.3,811.2c-0.5-10.8,7.4-19,18-19c10.6,0,18.5,8.2,18,19c0,13.1,0,26.2,0,39.3c0.5,10.8-7.4,19-18,19
					c-10.6,0-18.5-8.2-18-19C1126.3,837.4,1126.3,824.3,1126.3,811.2z M1138.2,851.2c0,5.4,2.4,7.5,6.2,7.5c3.8,0,6.2-2.1,6.2-7.5
					c0-13.6,0-27.2,0-40.8c0-5.4-2.4-7.5-6.2-7.5c-3.8,0-6.2,2.1-6.2,7.5C1138.2,824,1138.2,837.6,1138.2,851.2z"/>
			</g>
		</g>
		<g>
			<g>
				<path class="st0" d="M920.5,708c7.5,0,11.3,0,18.8,0c11.1-0.6,18.3,8,17.7,18.7c0,12.7,0,25.5,0,38.2
					c0.6,10.7-6.7,19.3-17.7,18.7c-7.5,0-11.3,0-18.8,0C920.5,758.4,920.5,733.2,920.5,708z M932.4,718.8c0,18,0,36,0,54
					c2.7,0,4,0,6.7,0c3.8,0,6-1.9,6-7.3c0-13.1,0-26.2,0-39.3c0-5.4-2.3-7.3-6-7.3C936.4,718.8,935.1,718.8,932.4,718.8z"/>
				<path class="st0" d="M1010.8,783.6c-4.8,0-7.2,0-12,0c-0.8-5.5-1.2-8.2-2.1-13.7c-5.8,0-8.7,0-14.6,0c-0.8,5.5-1.2,8.2-2.1,13.7
					c-4.4,0-6.5,0-10.9,0c4-25.2,8.1-50.4,12.1-75.6c7,0,10.4,0,17.4,0C1002.7,733.2,1006.8,758.4,1010.8,783.6z M983.7,759.7
					c4.6,0,6.9,0,11.4,0c-1.9-12.7-3.7-25.5-5.6-38.2c-0.1,0-0.1,0-0.2,0C987.4,734.2,985.6,746.9,983.7,759.7z"/>
				<path class="st0" d="M1049,783.6c-0.6-1.9-1.1-3.1-1.1-9.3c0-4.8,0-7.1,0-11.9c0-7-2.4-9.6-7.8-9.6c-1.6,0-2.5,0-4.1,0
					c0,10.3,0,20.5,0,30.8c-4.8,0-7.1,0-11.9,0c0-25.2,0-50.4,0-75.6c7.2,0,10.8,0,17.9,0c10.7-0.7,18.3,6.7,17.6,17.4
					c0,2.4,0,3.6,0,5.9c0,7.8-2.5,12.7-7.8,15.2c0,0.1,0,0.1,0,0.2c5.9,2.5,7.9,8.1,7.9,16c0,4.7,0,7,0,11.7c0,3.7,0.1,6.4,1.3,9.2
					C1056.3,783.6,1053.9,783.6,1049,783.6z M1036.1,718.8c0,9.3,0,13.9,0,23.2c1.9,0,2.8,0,4.6,0c4.4,0,7.1-1.9,7.1-8
					c0-3,0-4.5,0-7.5c0-5.4-1.8-7.8-6-7.8C1039.5,718.8,1038.3,718.8,1036.1,718.8z"/>
				<path class="st0" d="M1091,753.5c-1.5,2.8-2.2,4.1-3.7,6.9c0,9.3,0,13.9,0,23.2c-4.8,0-7.1,0-11.9,0c0-25.2,0-50.4,0-75.6
					c4.8,0,7.1,0,11.9,0c0,10.9,0,21.8,0,32.7c0.1,0,0.1,0,0.2,0c5.1-10.9,10.2-21.8,15.3-32.7c4.8,0,7.1,0,11.9,0
					c-5.5,11.2-11,22.5-16.5,33.7c5.5,14,11,27.9,16.5,41.9c-4.9,0-7.3,0-12.2,0C1098.7,773.6,1094.9,763.5,1091,753.5z"/>
				<path class="st0" d="M1126.3,726.2c-0.5-10.8,7.2-19,17.9-19.1c10.8-0.1,18.7,8.2,18.2,19.1c0,13.1,0,26.2,0,39.3
					c0.5,10.8-7.4,19-18,19c-10.6,0-18.5-8.2-18-19C1126.3,752.4,1126.3,739.3,1126.3,726.2z M1138.2,766.2c0,5.4,2.4,7.5,6.2,7.5
					c3.8,0,6.2-2.1,6.2-7.5c0-13.6,0-27.2,0-40.8c0-5.4-2.4-7.5-6.2-7.5c-3.8,0-6.2,2.1-6.2,7.5
					C1138.2,739,1138.2,752.6,1138.2,766.2z"/>
			</g>
		</g>
		<g>
			<g>
				<path class="st0" d="M805.1,551c7.5,0,11.3,0,18.8,0c11.1-0.6,18.3,8,17.7,18.7c2,12.9,14,23.8,22.3,33.1
					c15.2,16.8,31.5,32.6,47.4,48.7c3,3.2,42.8,41.6,21.1,42.9c-7.5,0-11.3,0-18.8,0c-26.3-32.8-58.1-60.5-86.2-91.6
					C811.1,584.7,805.1,574.4,805.1,551z M817,561.8c-2.2,16.7,12.3,29.8,22.5,41c21.3,23.6,44.5,45.5,66.4,68.5c2.7,0,4,0,6.7,0
					c3.8,0,2.1-4.4-11.7-18.4c-16.4-16.6-33.2-32.8-48.8-50.1c-8.4-9.3-20.9-20.6-22.3-33.6c0-5.4-2.3-7.3-6-7.3
					C821,561.8,819.6,561.8,817,561.8z"/>
				<path class="st0" d="M1003.9,694.4c-4.8,0-7.2,0-12,0c-8.8-10.7-18.7-20.5-28.5-30.2c-5.8,0-8.7,0-14.6,0
					c8.6,9.7,17.2,19.4,24.4,30.2c-4.4,0-6.5,0-10.9,0c-23.8-33.1-54.1-60.4-80.2-91.6c-15.9-19-20-28.4-16.3-51.7
					c7,0,10.4,0,17.4,0c3.7,23.3,11.3,34.2,28.5,51.8C942,633.8,975.3,661.8,1003.9,694.4z M924.3,637.6c4.6,0,6.9,0,11.4,0
					c-17.3-16.6-60.2-46.2-61.7-73.2c-0.1,0-0.1,0-0.2,0C866.9,588.6,910.7,623.1,924.3,637.6z"/>
				<path class="st0" d="M1042.2,694.4c-3.2-3.5-4.3-5.1-17.5-19.5c-9.4-10.2-19.1-20-28.8-29.9c-8.5-8.3-19.8-22.8-32.5-25.1
					c-1.6,0-2.5,0-4.1,0c23.7,24.1,49.7,47.3,70,74.5c-4.8,0-7.1,0-11.9,0c-26.3-32.8-58.1-60.5-86.2-91.6
					c-16.3-18-22.3-28.3-22.3-51.7c7.2,0,10.8,0,17.9,0c10.7-0.8,18.3,6.7,17.6,17.4c0,2.4-0.1,3.5,1.3,6.8
					c4.9,9.4,13,18.7,14.8,29.3c0.2,0.2,0.3,0.3,0.5,0.5c18.2,9.7,33.3,26.5,47.7,40.8c9.5,9.6,19,19.3,28.2,29.3
					c7.8,8.6,12.6,14.1,17.4,19.3C1049.4,694.4,1047,694.4,1042.2,694.4z M920.6,561.8c-1,14.1,6.5,21.7,14.9,32.5
					c1.9,0,2.8,0,4.6,0c4.4,0,1.7-5.4-4.2-15.1c-2.9-4.8-3.5-6.7-3.5-9.6c0-5.4-1.8-7.8-6-7.8C924.1,561.8,922.9,561.8,920.6,561.8z
					"/>
				<path class="st0" d="M1015.8,621.6c5.4,7.1,8.4,10.8,14.1,18c17.4,17.5,35.8,34.9,50.6,54.8c-4.8,0-7.1,0-11.9,0
					c-26.3-32.8-58.1-60.5-86.2-91.6C966,584.7,960,574.4,960,551c4.8,0,7.1,0,11.9,0c0,18.8,1,24,12.6,40.6c0.1,0,0.1,0,0.2,0
					c-8.3-19.2-5.5-22.9,2.7-40.6c4.8,0,7.1,0,11.9,0c-8.6,17.4-11.5,23.8-2.2,42.6c36.2,34.3,76.4,64.6,110.8,100.7
					c-4.9,0-7.3,0-12.2,0C1071.2,668.1,1042.7,645.3,1015.8,621.6z"/>
				<path class="st0" d="M1010.9,569.1c-0.5-10.8,7.4-19,18-19c10.6,0,18.5,8.2,18,19c1.4,13,14,24.3,22.3,33.6
					c15.6,17.3,32.4,33.6,48.8,50.1c1,1.1,42.3,44.1,20.5,43c-21.9-1-42.2-28.7-56.6-43c-16.4-16.6-33.2-32.8-48.8-50.1
					C1024.9,593.5,1012.3,582.2,1010.9,569.1z M1095.9,654.8c7.1,6.9,15.2,17.2,23.9,18.5c3.2,0.5,2.1-4.6-11.6-18.5
					c-17-17.2-34.5-34.1-50.7-52.1c-8.4-9.3-21.7-21.1-22.3-34.4c0-5.4-2.4-7.5-6.2-7.5c-3.8,0-6.2,2.1-6.2,7.5
					c0.6,13.2,14,25.1,22.3,34.4C1061.4,620.7,1078.9,637.6,1095.9,654.8z"/>
			</g>
		</g>
		<g>
			<g>
				<path class="st0" d="M777,465.7c7.5,0,11.3,0,18.8,0c14,0.4,27.4,8.6,36.4,18.9c9.5,13.8,9.4,22.1,9.4,38.3
					c0.6,10.7-6.7,19.3-17.7,18.7c-7.5,0-11.3,0-18.8,0c0-11.7,2.3-26.4,0-37.8C801.7,487.2,788.6,477,777,465.7z M800.1,476.6
					c17.2,18.8,16.8,30.2,16.8,54.2c2.7,0,4,0,6.7,0c3.8,0,6-1.9,6-7.3c0-16.8,0.1-25.2-9.8-39.4c-4.7-5.4-9.3-7.4-13.1-7.4
					C804.1,476.6,802.8,476.6,800.1,476.6z"/>
				<path class="st0" d="M895.4,541.6c-4.8,0-7.2,0-12,0c-0.8-5.5-1.2-8.2-2.1-13.7c-5.8,0-8.7,0-14.6,0c-0.8,5.5-1.2,8.2-2.1,13.7
					c-4.4,0-6.5,0-10.9,0c1.8-11.5,6.7-26.1,6-37.8c-0.9-16.2-11.8-26.4-22.1-38.1c7,0,10.4,0,17.4,0c13.2,11.1,28.2,21.3,34.1,38.1
					C893.3,515.1,893.5,529.8,895.4,541.6z M868.3,517.6c4.6,0,6.9,0,11.4,0c-1.7-17.7-7.4-25.8-19.9-38.4c-0.1,0-0.1,0-0.2,0
					C869.4,493.1,871.6,500.9,868.3,517.6z"/>
				<path class="st0" d="M933.6,541.6c-0.6-1.9-1.1-3.1-1.1-9.3c0-4.8,0-7.1,0-11.9c0-7-2.4-9.6-7.8-9.6c-1.6,0-2.5,0-4.1,0
					c0,10.3,0,20.5,0,30.8c-4.8,0-7.1,0-11.9,0c0-11.7,2.3-26.4,0-37.8c-3.4-16.6-16.4-26.8-28.1-38.1c7.2,0,10.8,0,17.9,0
					c13.7,0.3,26.2,7.6,35.2,17.6c2.1,2.4,3.1,3.6,4.8,6c5.6,7.8,3.2,12.8-2.1,15.3c0,0.1,0,0.1,0,0.2c5.9,2.5,7.9,8.1,7.9,16
					c0,4.7,0,7,0,11.7c0,3.7,0.1,6.4,1.3,9.2C940.8,541.6,938.4,541.6,933.6,541.6z M903.8,476.6c6.5,5.8,14.1,14.7,16.4,23.4
					c1.9,0,2.8,0,4.6,0c4.4,0,7.4-1.9,3.7-8c-1.8-3-3-4.5-5.6-7.5c-4.7-5.4-9.2-7.9-13.4-7.9C907.2,476.6,906.1,476.6,903.8,476.6z"
					/>
				<path class="st0" d="M975.6,511.5c-1.5,2.8-2.2,4.1-3.7,6.9c0,9.3,0,13.9,0,23.2c-4.8,0-7.1,0-11.9,0c0-11.7,2.3-26.4,0-37.8
					c-3.4-16.6-16.4-26.8-28.1-38.1c4.8,0,7.1,0,11.9,0c10.1,9.8,22.1,19.4,27.3,33c0.1,0,0.1,0,0.2,0c1.3-12.1-6-23.1-12-33
					c4.8,0,7.1,0,11.9,0c5.9,10.1,13.3,21.7,11.1,34c6.1,13.8,11.5,27.9,17,41.9c-4.9,0-7.3,0-12.2,0
					C983.3,531.6,979.5,521.5,975.6,511.5z"/>
				<path class="st0" d="M1001.1,484c-10.6-12.2-12.6-19.4-1.1-19.2c13.9,0.3,27.9,8.9,37.2,19.2c9.9,14.2,9.8,22.6,9.8,39.4
					c0.5,10.8-7.4,19-18,19c-10.6,0-18.5-8.2-18-19C1010.9,506.7,1011,498.2,1001.1,484z M1022.8,524.2c0,5.4,2.4,7.5,6.2,7.5
					c3.8,0,6.2-2.1,6.2-7.5c0-17.6,0.1-26.2-10.5-40.9c-4.8-5.5-9.6-7.5-13.4-7.5c-3.8,0-3.8,2.1,1.1,7.5
					C1022.9,498,1022.8,506.6,1022.8,524.2z"/>
			</g>
		</g>
		<g>
			<g>
				<path class="st0" d="M758.6,380.5c7.5,0,11.3,0,18.8,0c11.1-0.6,18.3,8,17.7,18.7c0,12.7,0,25.5,0,38.2
					c0.3,12.1,3.5,18.8-8.4,18.8c-7.5,0-11.3,0-18.8,0C753.8,434.4,758.6,405.9,758.6,380.5z M770.5,391.3c0,18-1,36.2,2,54
					c2.7,0,4,0,6.7,0c3.8,0,4.4-2,4.1-7.4c-0.1-13.1,0-26.2,0-39.3c0-5.4-2.3-7.3-6-7.3C774.5,391.3,773.1,391.3,770.5,391.3z"/>
				<path class="st0" d="M858.2,456.2c-4.8,0-7.2,0-12,0c-5.6-5.5-8-8.3-10.5-13.8c-5.8,0-8.7,0-14.6,0c0.9,5.5,2.5,8.3,6.4,13.8
					c-4.4,0-6.5,0-10.9,0c-11.1-22.6-1.1-51.5,2.7-75.7c7,0,10.4,0,17.4,0C841,406.7,840.8,435.4,858.2,456.2z M821.8,432.1
					c4.6,0,6.9,0,11.4,0c-1.9-12.7-3.7-25.5-5.6-38.2c-0.1,0-0.1,0-0.2,0C825.5,406.6,823.6,419.4,821.8,432.1z"/>
				<path class="st0" d="M896.5,456.2c-2.3-2-4.4-3.2-7.7-9.4c-2.5-4.8-2.8-7.2-2.8-11.9c0-7-2.4-9.6-7.8-9.6c-1.6,0-2.5,0-4.1,0
					c-1.9,13,2.3,20.5,9.4,30.9c-4.8,0-7.1,0-11.9,0c-14.1-21.8-9.4-50.3-9.4-75.7c7.2,0,10.8,0,17.9,0c10.7-0.8,18.3,6.7,17.6,17.4
					c0,2.4,0,3.6,0,5.9c0,7.8-2.5,12.7-7.8,15.2c0,0.1,0,0.1,0,0.2c5.9,2.5,7.9,8.1,7.9,16c0,4.7,0.3,7,2.8,11.7
					c2,3.7,4.2,6.4,7.8,9.2C903.7,456.2,901.3,456.2,896.5,456.2z M874.1,391.3c0,9.3,0,13.9,0,23.2c1.9,0,2.8,0,4.6,0
					c4.4,0,7.1-1.9,7.1-8c0-3,0-4.5,0-7.5c0-5.4-1.8-7.8-6-7.8C877.6,391.3,876.4,391.3,874.1,391.3z"/>
				<path class="st0" d="M929.1,426c-1.5,2.8-2.2,4.1-3.7,6.9c0,9.3,1.3,13.9,9.4,23.3c-4.8,0-7.1,0-11.9,0
					c-14.1-21.8-9.4-50.3-9.4-75.7c4.8,0,7.1,0,11.9,0c0,10.9,0,21.8,0,32.7c0.1,0,0.1,0,0.2,0c5.1-10.9,10.2-21.8,15.3-32.7
					c4.8,0,7.1,0,11.9,0c-5.5,11.2-11,22.5-16.5,33.7c7,17.7,11.5,28.9,25.9,42c-4.9,0-7.3,0-12.2,0
					C939.5,446.7,933.7,439.3,929.1,426z"/>
				<path class="st0" d="M964.4,398.7c-0.5-10.8,7.4-19,18-19c10.6,0,18.5,8.2,18,19c0,13.1,0,26.2,0,39.3c0.7,12.1,3.5,19.3-8,19.1
					c-11.4-0.2-25.6-6.6-28.1-19.1C964.4,424.9,964.4,411.8,964.4,398.7z M976.4,438.7c0.6,5.4,4.7,7.5,8.5,7.5
					c3.8,0,4.4-2.1,3.8-7.5c-0.2-13.6-0.1-27.2-0.1-40.8c0-5.4-2.4-7.5-6.2-7.5c-3.8,0-6.2,2.1-6.2,7.5
					C976.3,411.5,976.2,425.1,976.4,438.7z"/>
			</g>
		</g>
		<g>
			<g>
				<path class="st0" d="M805.1,296c7.5,0,11.3,0,18.8,0c10-0.5,20.8,7.9,15,18.7c-8.4,14.7-23.6,25.7-35.1,37.9
					c-7,8.7-14.2,18.5-26.4,18.6c-7.5,0-11.3,0-18.8,0C762,339.9,810.5,330.3,805.1,296z M816.8,306.8
					c-4.7,22.3-31.8,35.1-43.3,53.5c2.7,0,4,0,6.7,0c3.8,0,6.7-1.9,11.2-7.3c11.7-12.4,27.5-23.7,35.8-38.9c2.7-5.4,0.1-7.3-3.7-7.3
					C820.9,306.8,819.5,306.8,816.8,306.8z"/>
				<path class="st0" d="M848.9,371.1c-4.8,0-7.2,0-12,0c-0.8-5.5-0.1-8.2,2.8-13.7c-5.8,0-8.7,0-14.6,0c-4.5,5.4-6.1,8.2-6.9,13.7
					c-4.4,0-6.5,0-10.9,0c8.6-31.3,58.9-39.8,58.6-75.1c7,0,10.4,0,17.4,0C894.3,328.6,846.9,340.8,848.9,371.1z M835.2,347.3
					c4.6,0,6.9,0,11.4,0c9.8-11.4,23.4-22.6,26.8-37.9c-0.1,0-0.1,0-0.2,0C866,325.2,848,336.4,835.2,347.3z"/>
				<path class="st0" d="M887.1,371.1c-0.6-1.9-1.8-3.1,1.2-9.3c2.3-4.7,4.2-7.1,8.5-11.8c6.3-7,7.1-9.5,1.7-9.5c-1.6,0-2.5,0-4.1,0
					c-8.6,8.5-19.5,17.5-20.3,30.6c-4.8,0-7.1,0-11.9,0c3.5-31.2,51.9-40.8,46.5-75.1c7.2,0,10.8,0,17.9,0
					c9.6-0.7,20.5,6.6,15.5,17.4c-1.1,2.4-1.9,3.5-3.6,5.9c-5.6,7.7-13.8,12.6-21.7,15.1c-0.1,0.1-0.1,0.1-0.2,0.2
					c3.4,2.5-1.2,8-8.3,15.8c-4.2,4.6-6,6.9-8.3,11.6c-1.8,3.7-2.1,6.3-0.9,9.2C894.4,371.1,891.9,371.1,887.1,371.1z M920.5,306.8
					c-1.3,8.6-8.7,17.5-14.9,23.1c1.9,0,2.8,0,4.6,0c4.4,0,9.5-1.9,14.4-7.9c2.4-3,3.5-4.4,5-7.4c2.8-5.4,0.7-7.7-3.5-7.7
					C923.9,306.8,922.8,306.8,920.5,306.8z"/>
				<path class="st0" d="M948.7,341.2c-4.3,2.7-6.5,4.1-10.6,6.8c-8.8,9.2-12.7,13.8-12.7,23.1c-4.8,0-7.1,0-11.9,0
					c3.5-31.2,51.9-40.8,46.5-75.1c4.8,0,7.1,0,11.9,0c1.6,14.2-4.8,22.4-13.7,32.6c0.1,0,0.1,0,0.2,0c12.6-9.3,23.4-17.5,29.1-32.6
					c4.8,0,7.1,0,11.9,0c-6,15.7-18,24.1-31.2,33.5c-9.4,14.5-17.1,23.9-15.3,41.6c-4.9,0-7.3,0-12.2,0
					C936.4,360.1,943.5,350,948.7,341.2z"/>
				<path class="st0" d="M1008.4,314.1c3.7-9.8,8.8-19,20.5-19c9.7,0,20.8,8.1,15.6,19c-8.3,15.2-24.2,26.5-35.8,38.9
					c-6.8,8.6-14.4,18.5-26.2,18.9c-10.8,0.4-19.9-9.6-9.8-18.9C984.3,340.6,1000.1,329.3,1008.4,314.1z M983.9,353.8
					c-4.3,5.4-2.6,7.4,1.2,7.4c3.8,0,6.8-2,11.1-7.4c11.9-12.9,28.6-24.6,36.8-40.4c2.5-5.4-0.3-7.4-4.1-7.4c-3.8,0-5.7,2.1-8.2,7.4
					C1012.5,329.2,995.8,340.9,983.9,353.8z"/>
			</g>
		</g>
		<g>
			<g>
				<path class="st0" d="M831.5,213.6c7.5,0,11.3,0,18.8,0c11.9,0,3.7,5.2-5.2,16.4c-6.1,11-3.5,25.9-3.5,37.9
					c0.6,10.7-6.7,19.3-17.7,18.7c-7.5,0-11.3,0-18.8,0c0-12.5-0.8-25.3,0-37.8C806.4,228.4,813.7,224.5,831.5,213.6z M828.2,222.9
					c-15.2,15-11.2,32.7-11.2,52.9c2.7,0,4,0,6.7,0c3.8,0,6-1.9,6-7.3c0-12.3-2.9-27.9,3.9-38.9c4.2-5,5.1-6.6,1.3-6.6
					C832.2,222.9,830.9,222.9,828.2,222.9z"/>
				<path class="st0" d="M895.4,286.6c-4.8,0-7.2,0-12,0c-0.8-5.5-1.2-8.2-2.1-13.7c-5.8,0-8.7,0-14.6,0c-0.8,5.5-1.2,8.2-2.1,13.7
					c-4.4,0-6.5,0-10.9,0c2-12.5,3.3-25.5,6-37.8c4.7-20.6,13.7-24.9,32.4-35.2c7,0,10.4,0,17.4,0c-16.8,11.6-22.2,15.3-20.3,35.2
					C890.5,261.4,893.4,274.1,895.4,286.6z M868.3,262.6c4.6,0,6.9,0,11.4,0c-2.2-15.1-5.8-24.2,2.7-37.4c-0.1,0-0.1,0-0.2,0
					C870.5,237.4,870.6,246.5,868.3,262.6z"/>
				<path class="st0" d="M933.6,286.6c-0.6-1.9-1.1-3.1-1.1-9.3c0-4.8,0-7.1,0-11.9c0-7-2.4-9.6-7.8-9.6c-1.6,0-2.5,0-4.1,0
					c0,10.3,0,20.5,0,30.8c-4.8,0-7.1,0-11.9,0c0-12.5-0.8-25.3,0-37.8c1.4-20.4,8.6-24.3,26.4-35.2c7.2,0,10.8,0,17.9,0
					c12.3,0,5.3,4.5-4.3,15.2c-2,2.2-2.7,3.3-3.6,5.6c-3,7.5-3.3,12.7-8.6,15.1c0,0.1,0,0.1,0,0.2c5.9,2.5,7.9,8.1,7.9,16
					c0,4.7,0,7,0,11.7c0,3.7,0.1,6.4,1.3,9.2C940.8,286.6,938.4,286.6,933.6,286.6z M931.9,222.9c-11.2,8.2-11.2,12.8-11.2,22.1
					c1.9,0,2.8,0,4.6,0c4.4,0,6.4-2,7.2-8c0.4-2.9,1.2-4.4,3.4-7.1c4-5,5.9-7,1.6-7C935.3,222.9,934.1,222.9,931.9,222.9z"/>
				<path class="st0" d="M975.6,256.5c-1.5,2.8-2.2,4.1-3.7,6.9c0,9.3,0,13.9,0,23.2c-4.8,0-7.1,0-11.9,0c0-12.5-0.8-25.3,0-37.8
					c1.4-20.4,8.6-24.3,26.4-35.2c4.8,0,7.1,0,11.9,0c-10.8,6.4-29,14.2-26.4,30.1c0.1,0,0.1,0,0.2,0c6.1-16.8,27-23.6,41.7-30.1
					c4.8,0,7.1,0,11.9,0c-15.6,6.8-36.3,13.5-42.9,31.1c5.5,14,11,27.9,16.5,41.9c-4.9,0-7.3,0-12.2,0
					C983.3,276.6,979.5,266.5,975.6,256.5z"/>
				<path class="st0" d="M1014.8,229.5c9.6-10.7,28.1-16.5,41.9-16.6c11.5-0.1,3.6,5.5-5.8,16.6c-6.7,11-3.9,26.6-3.9,38.9
					c0.5,10.8-7.4,19-18,19c-10.6,0-18.5-8.2-18-19C1010.9,256.2,1008.1,240.6,1014.8,229.5z M1022.8,269.2c0,5.4,2.4,7.5,6.2,7.5
					c3.8,0,6.2-2.1,6.2-7.5c0-14.6-1.3-26.8,4.5-40.4c4.5-5,5.4-6.7,1.7-6.7c-3.8,0-9.5,1.7-14,6.7
					C1021.5,242.4,1022.8,254.6,1022.8,269.2z"/>
			</g>
		</g>
		<g>
			<g>
				<path class="st0" d="M875.5,133.1c7.5,0,11.3,0,18.8,0c11.1-0.6,18.3,8,17.7,18.7c0,11.8,3.3,27.8-4.9,37.7
					c-10.7,10.2-27.4,15.8-42,16.2c-7.5,0-11.3,0-18.8,0c17.7-10.4,27.1-14.5,29.2-34.9C876.7,158.6,875.5,145.4,875.5,133.1z
					 M887.4,143.9c0,21.8,4,37.4-13.4,52.7c2.7,0,4,0,6.7,0c3.8,0,9.3-1.6,14.1-6.5c6.9-13.1,5.4-24.2,5.4-38.8c0-5.4-2.3-7.3-6-7.3
					C891.4,143.9,890.1,143.9,887.4,143.9z"/>
				<path class="st0" d="M936.6,205.7c-4.8,0-7.2,0-12,0c7.8-4.6,11.7-6.9,17.2-11.8c-5.8,0-8.7,0-14.6,0
					c-7.1,4.9-11.9,7.2-21.3,11.8c-4.4,0-6.5,0-10.9,0c18.8-9.9,29.9-14.4,35.2-34.9c3.1-12.1,4.1-25.4,6-37.8c7,0,10.4,0,17.4,0
					c2,12.3,5.3,25.3,6,37.8C960.9,190.7,953.5,194.7,936.6,205.7z M937.4,184.5c4.6,0,6.9,0,11.4,0c0.6-12.7-2.5-25.6-4.3-38.1
					c-0.1,0-0.1,0-0.2,0C942.4,159.1,941.6,172.4,937.4,184.5z"/>
				<path class="st0" d="M974.8,205.7c2.4-1.6,4.4-2.6,12.7-7.9c6.4-4.1,9.2-6.2,12.5-10.6c4.8-6.5,0.6-9.3-4.8-9.3
					c-1.6,0-2.5,0-4.1,0c-0.6,14.7-18.5,21.8-29.2,27.9c-4.8,0-7.1,0-11.9,0c17.7-10.4,27.1-14.5,29.2-34.9c1.2-12.3,0-25.4,0-37.8
					c7.2,0,10.8,0,17.9,0c10.7-0.8,18.3,6.7,17.6,17.4c0,2.4,0,3.6,0,5.9c0,7.8-2.5,12.7-7.8,15.2c0,0.1,0,0.1,0,0.2
					c5.9,2.5,10.3,8.3,4.7,15.7c-3.3,4.3-6.1,6.4-12.4,10.4c-5,3.2-9.1,5.5-12.3,7.8C982.1,205.7,979.7,205.7,974.8,205.7z
					 M991.1,143.9c0,9.3,0,13.9,0,23.2c1.9,0,2.8,0,4.6,0c4.4,0,7.1-1.9,7.1-8c0-3,0-4.5,0-7.5c0-5.4-1.8-7.8-6-7.8
					C994.5,143.9,993.3,143.9,991.1,143.9z"/>
				<path class="st0" d="M1046,178.5c-1.5,2.8-2.4,4.1-5.4,6.7c-6.3,9.6-17.9,15-27.5,20.5c-4.8,0-7.1,0-11.9,0
					c17.7-10.4,27.1-14.5,29.2-34.9c1.2-12.3,0-25.4,0-37.8c4.8,0,7.1,0,11.9,0c0,10.9,0,21.8,0,32.7c0.1,0,0.1,0,0.2,0
					c5.1-10.9,10.2-21.8,15.3-32.7c4.8,0,7.1,0,11.9,0c-5.5,11.2-11,22.5-16.5,33.7c8.1,20.4,4.3,25.3-12.7,39c-4.9,0-7.3,0-12.2,0
					C1036.6,199.5,1050.6,191.2,1046,178.5z"/>
				<path class="st0" d="M1081.3,151.2c-0.5-10.8,7.4-19,18-19c10.6,0,18.5,8.2,18,19c0,14.6,1.6,25.7-5.4,38.8
					c-11.1,10.2-28.5,16.2-43.2,16.5c-11.4,0.2-3.7-5.5,7.1-16.5C1082.9,176.9,1081.3,165.8,1081.3,151.2z M1087.2,190.7
					c-5.1,4.9-6.2,6.6-2.4,6.6c3.8,0,9.6-1.7,14.7-6.6c7.8-13.6,6-24.8,6-40.2c0-5.4-2.4-7.5-6.2-7.5c-3.8,0-6.2,2.1-6.2,7.5
					C1093.2,165.9,1095,177.1,1087.2,190.7z"/>
			</g>
		</g>
		<g>
			<g>
				<path class="st0" d="M805.2,41c7.5,0,11.3,0,18.8,0c13.4,0.2,23.6,12.1,33,20.2c16.9,13.3,39.8,25.4,52.2,43.5
					c6.2,10.8-4.8,19.5-14.9,19c-7.5,0-11.3,0-18.8,0C878.7,80.5,814.5,77.8,805.2,41z M823.2,52.4c17.1,16.5,59.8,35.2,64.2,60.4
					c2.7,0,4,0,6.7,0c3.8,0,7-1.8,3.6-7.6c-12.2-18.7-36.1-31.1-53.2-44.6c-7.1-6.1-10.7-8.2-14.5-8.2
					C827.2,52.4,825.9,52.4,823.2,52.4z"/>
				<path class="st0" d="M965.8,123.7c-4.8,0-7.2,0-12,0c-0.8-5.5-0.1-8.1-2.5-13.8c-5.8,0-8.7,0-14.6,0c0.7,5.6-0.8,8.3-1.6,13.8
					c-4.4,0-6.5,0-10.9,0C935.7,82.9,870.1,76.3,866,41c7,0,10.4,0,17.4,0C898.1,78.5,961.4,79.4,965.8,123.7z M931.3,98.9
					c4.6,0,6.9,0,11.4,0c-18.4-16.6-41-27.6-59.8-43.7c-0.1,0-0.1,0-0.2,0C898,70.6,917.5,82.2,931.3,98.9z"/>
				<path class="st0" d="M1004,123.7c-0.6-1.9-1.1-3.1-1.1-9.3c0-4.8-0.7-7.2-4.7-12.4c-6-7.6-13.1-10.7-18.6-10.7
					c-1.6,0-2.5,0-4.1,0c10.9,10.6,16.7,16.8,15.5,32.3c-4.8,0-7.1,0-11.9,0c3.2-43.1-61-45.8-70.3-82.6c7.2,0,10.8,0,17.9,0
					c13.2,0.1,22.1,10.5,31.2,18.8c3.1,2.7,4.8,4,8.3,6.8c11.6,8.9,17.5,14.8,16,17.6c0.1,0.1,0.2,0.1,0.3,0.2
					c10.6,3.2,20.6,9.4,27.7,18c3.9,5.1,4.5,7.4,4.5,12.1c0,3.7,0.1,6.4,1.3,9.2C1011.3,123.7,1008.9,123.7,1004,123.7z M926.9,52.4
					c9.5,10.3,21.2,18.2,32.5,26.5c1.9,0,2.8,0,4.6,0c4.4,0,3.8-2.3-5.5-9.3c-4.6-3.4-6.9-5.2-10.9-8.5c-7.2-6.1-10.9-8.7-15.1-8.7
					C930.3,52.4,929.2,52.4,926.9,52.4z"/>
				<path class="st0" d="M1031.4,92.1c2.2,3.1,3.1,4.7,4.4,7.7c9.1,10.2,6.6,14.6,6.6,23.9c-4.8,0-7.1,0-11.9,0
					c3.2-43.1-61-45.8-70.3-82.6c4.8,0,7.1,0,11.9,0c3.4,16.1,24.7,27.7,36.6,36.4c0.1,0,0.1,0,0.2,0c-9-9.5-24-21.4-21.3-36.4
					c4.8,0,7.1,0,11.9,0c-3,15.4,12.5,27.7,21.6,37.5c20.1,12,40.7,21.9,48.7,45.1c-4.9,0-7.3,0-12.2,0
					C1052.6,108.2,1044.3,101.6,1031.4,92.1z"/>
				<path class="st0" d="M1025.6,60.6c-6.3-7.1-14.8-21.6,3.3-20.5c12.7,0.8,23.5,12.4,32.7,20.5c17.1,13.6,41,26,53.2,44.6
					c5.4,11-5.7,19.3-15.5,19.3c-11.8,0-16.9-9.4-20.5-19.3C1066.6,86.6,1042.7,74.2,1025.6,60.6z M1091.2,106.1
					c3.1,5.7,4.4,7.7,8.2,7.7c3.8,0,7.3-1.9,4.1-7.7c-12.3-19.4-37.3-32.2-54.7-46.3c-7-6.1-10.6-8.3-14.4-8.3
					c-3.8,0-4.9,2.2,2.1,8.3C1053.9,73.9,1078.9,86.7,1091.2,106.1z"/>
			</g>
		</g>
	</g>
</g>
</svg>
