<svg xmlns="http://www.w3.org/2000/svg" xmlns:xlink="http://www.w3.org/1999/xlink" viewBox="0 0 1787.547 553.547"><defs><style>.cls-1,.cls-4{stroke:#000;stroke-miterlimit:10;stroke-width:2px;}.cls-2,.cls-4{fill:none;}.cls-3{clip-path:url(#clip-path);}.cls-5{mask:url(#mask);}.cls-6{filter:url(#luminosity-noclip);}</style><clipPath id="clip-path" transform="translate(0 -49.326)"><circle class="cls-2" cx="870.332" cy="326.065" r="194.737"/></clipPath><filter id="luminosity-noclip" x="587.783" y="49.326" width="551.932" height="553.547" filterUnits="userSpaceOnUse" color-interpolation-filters="sRGB"><feFlood flood-color="#fff" result="bg"/><feBlend in="SourceGraphic" in2="bg"/></filter><mask id="mask" x="587.783" y="0" width="551.932" height="553.547" maskUnits="userSpaceOnUse"><g class="cls-6"><g transform="translate(0 -49.326)"><circle class="cls-1" cx="871.209" cy="326.065" r="194.737"/></g></g></mask></defs><title>Asset 6</title><g id="Layer_2" data-name="Layer 2"><g id="Layer_1-2" data-name="Layer 1"><g class="cls-3"><path class="cls-4" d="M0,598.77q679.274.7,1358.545-.227,214.5.024,429,.227" transform="translate(0 -49.326)"/><path class="cls-4" d="M22.181,583.612c232.629,4.845,465.432,6.247,698.087,2.738,209.367-3.158,418.695-7.608,628.094-7.177q208.518.429,417,4.439" transform="translate(0 -49.326)"/><path class="cls-4" d="M44.362,568.454c226.743,9.343,454.119,11.819,680.962,5.17,202.365-5.932,404.605-14.337,607.085-13.66,136.966.459,273.92,2.85,410.776,8.49" transform="translate(0 -49.326)"/><path class="cls-4" d="M66.542,553.295c220.763,13.733,442.851,17.031,663.835,7.437,197.288-8.565,394.311-20.7,591.846-19.784,133.019.615,266.006,4.088,398.782,12.347" transform="translate(0 -49.326)"/><path class="cls-4" d="M88.723,538.137c213.29,17.894,428.875,21.99,642.568,9.777,192.51-11,384.607-26.807,577.535-25.821,130.162.664,260.269,5.16,390,16.044" transform="translate(0 -49.326)"/><path class="cls-4" d="M110.9,522.979C318.061,545,528.552,549.5,736.337,534.752c187.427-13.3,374.239-32.37,562.3-31.319,126.26.706,252.426,6.2,378.012,19.546" transform="translate(0 -49.326)"/><path class="cls-4" d="M133.083,507.82a2870.48,2870.48,0,0,0,608.308,13.606C923.727,506,1105.232,483.9,1288.443,484.952c122.373.7,244.614,7.147,366.021,22.868" transform="translate(0 -49.326)"/><path class="cls-4" d="M155.264,492.662c131.394,20.178,264.118,26.84,396.949,25.99,114.533-.734,227.773-13.886,341.56-25.99s227.027-25.256,341.561-25.989c132.83-.851,265.555,5.811,396.949,25.989" transform="translate(0 -49.326)"/><path class="cls-4" d="M177.444,477.5c127.143,22.7,256.016,30.117,385.027,28.877,111.257-1.069,220.98-15.52,331.3-28.877s220.048-27.808,331.3-28.877c129.012-1.24,257.884,6.174,385.027,28.877" transform="translate(0 -49.326)"/><path class="cls-4" d="M199.624,462.345c122.881,25.138,247.858,33.264,373.105,31.567,107.987-1.463,214.179-17.071,321.044-31.567s213.06-30.1,321.044-31.566c125.25-1.7,250.221,6.429,373.106,31.566" transform="translate(0 -49.326)"/><path class="cls-4" d="M221.805,447.187c117.647,27.264,237.831,36.169,358.381,34.108,105.677-1.807,209.245-18.443,313.587-34.108,102.43-15.378,204.267-31.975,308-34,122.426-2.388,244.476,6.306,363.974,34" transform="translate(0 -49.326)"/><path class="cls-4" d="M243.985,432.029C357.3,461.5,473.616,471.068,590.441,468.446c102.366-2.3,202.5-19.837,303.332-36.417,98.938-16.268,197.311-33.728,297.734-36.275,118.7-3.01,236.9,6.323,352.055,36.275" transform="translate(0 -49.326)"/><path class="cls-4" d="M266.166,416.87c108.963,31.578,221.4,41.791,334.53,38.531,99.043-2.853,195.755-21.153,293.077-38.531,95.424-17.038,190.381-35.221,287.472-38.349,115.007-3.706,229.332,6.239,340.136,38.349" transform="translate(0 -49.326)"/><path class="cls-4" d="M288.346,401.712c107.314,34.456,218.716,44.843,330.978,40.121,92.772-3.9,183.477-22.612,274.449-40.121s181.672-36.178,274.45-40.12c112.248-4.769,223.679,5.669,330.978,40.12" transform="translate(0 -49.326)"/><path class="cls-4" d="M310.526,386.554c101.125,35.791,206.685,47.063,313.487,42.031,91.359-4.3,180.419-23.609,269.76-42.031,87.462-18.034,174.782-37.155,264.185-41.768,108.662-5.607,216.123,5.335,319.063,41.768" transform="translate(0 -49.326)"/><path class="cls-4" d="M332.707,371.4c97.606,37.944,200.208,49.621,304.334,43.382,86.995-5.212,171.84-24.725,256.732-43.382s169.737-38.164,256.733-43.383c104.146-6.248,206.707,5.43,304.334,43.383" transform="translate(0 -49.326)"/><path class="cls-4" d="M354.887,356.237c177.047,75.335,358.551,42.024,538.886,0s361.835-75.336,538.887,0" transform="translate(0 -49.326)"/><path class="cls-4" d="M377.068,341.079c168.8,78.453,343.9,42.494,516.705,0s347.9-78.454,516.706,0" transform="translate(0 -49.326)"/><path class="cls-4" d="M399.248,325.921c161.467,78.27,328.931,42.542,494.525,0s333.055-78.271,494.526,0" transform="translate(0 -49.326)"/><path class="cls-4" d="M421.428,310.763c154.927,74.84,313.789,42.125,472.345,0s317.411-74.843,472.346,0" transform="translate(0 -49.326)"/><path class="cls-4" d="M443.609,295.6c76.4,36.7,157.715,49.539,241.963,43.546,71.177-5.064,139.669-24.787,208.2-43.546,66.734-18.267,133.5-37.6,202.736-43.109,86.079-6.844,169.27,5.558,247.429,43.109" transform="translate(0 -49.326)"/><path class="cls-4" d="M465.789,280.446C538.512,315.115,615.7,327.6,695.831,322.49c67.868-4.326,132.782-23.744,197.942-42.044,63.345-17.79,126.565-36.875,192.474-41.646,81.968-5.935,161.027,6.138,235.511,41.646" transform="translate(0 -49.326)"/><path class="cls-4" d="M487.969,265.288c68.983,32.542,142.181,44.691,218.12,40.345,64.552-3.695,125.863-22.607,187.684-40.345,59.947-17.2,119.681-35.9,182.213-39.985,77.818-5.09,152.8,6.589,223.592,39.985" transform="translate(0 -49.326)"/><path class="cls-4" d="M510.15,250.129c65.4,30.429,134.369,42,206.2,38.448,61.148-3.024,119-21.4,177.426-38.448,56.557-16.5,112.819-34.663,171.95-38.124,73.65-4.311,144.535,6.886,211.674,38.124" transform="translate(0 -49.326)"/><path class="cls-4" d="M532.33,234.971c61.746,28.223,126.612,39.21,194.276,36.352,57.771-2.44,112.058-20.093,167.167-36.352s109.4-33.912,167.168-36.352c67.664-2.858,132.53,8.13,194.276,36.352" transform="translate(0 -49.326)"/><path class="cls-4" d="M554.51,219.813c58.067,25.944,118.991,36.3,182.354,34.058,54.326-1.921,105.14-18.7,156.909-34.058,51.749-15.354,102.6-32.138,156.91-34.059,63.371-2.241,124.3,8.118,182.354,34.059" transform="translate(0 -49.326)"/><path class="cls-4" d="M576.691,204.654c54.5,23.656,111.169,33.267,170.432,31.567,50.876-1.459,98.193-17.209,146.65-31.567,48.428-14.348,95.8-30.15,146.651-31.566,59.321-1.653,115.859,7.878,170.432,31.566" transform="translate(0 -49.326)"/><path class="cls-4" d="M598.871,189.5c50.868,21.279,103.482,30.055,158.51,28.877,47.258-1.011,91.364-15.662,136.392-28.877,45.089-13.232,89.072-27.824,136.393-28.877,55.048-1.225,107.619,7.589,158.51,28.877" transform="translate(0 -49.326)"/><path class="cls-4" d="M621.052,174.338c47.22,18.834,95.831,26.823,146.588,25.989,43.7-.717,84.413-14,126.133-25.989s82.419-25.285,126.135-25.99c50.773-.818,99.331,7.141,146.588,25.99" transform="translate(0 -49.326)"/><path class="cls-4" d="M643.232,159.179c43.558,16.326,88.2,23.4,134.666,22.9,40.119-.43,77.454-12.254,115.875-22.9s75.741-22.486,115.876-22.9c46.5-.483,91.07,6.564,134.666,22.9" transform="translate(0 -49.326)"/><path class="cls-4" d="M665.412,144.021c39.9,13.761,80.543,19.9,122.744,19.62,36.482-.245,70.551-10.435,105.617-19.62,33.021-8.648,65.768-18.963,100.093-19.525,44.126-.723,86.492,5.118,128.269,19.525" transform="translate(0 -49.326)"/><path class="cls-4" d="M687.593,128.863A369.916,369.916,0,0,0,798.415,145c32.728-.089,63.714-8.552,95.358-16.138,29.658-7.109,59.168-15.708,89.821-16.069,39.782-.467,78.278,4.365,116.36,16.069" transform="translate(0 -49.326)"/><path class="cls-4" d="M709.773,113.705c63.157,16.4,120.959,13.1,184,0s120.844-16.4,184,0" transform="translate(0 -49.326)"/><path class="cls-4" d="M731.954,98.546c55.226,10.943,106.732,8.991,161.819,0,55.105-8.993,106.542-10.953,161.82,0" transform="translate(0 -49.326)"/><path class="cls-4" d="M754.134,83.388c93.654,10.959,185.624-10.959,279.279,0" transform="translate(0 -49.326)"/><path class="cls-4" d="M776.314,68.23c78.308.541,156.611-.542,234.918,0" transform="translate(0 -49.326)"/></g><g class="cls-5"><path class="cls-4" d="M653.944,193.136h13.781c8.667,0,12.925,2.741,12.9,7.774-.033,6.363-.121,9.544-.411,15.907-.229,5.033-4.538,7.774-13.081,7.774h-13.6C653.985,214.135,654.141,203.6,653.944,193.136Zm8.781,4.494c.06,8.987-.03,13.48-.381,22.468h4.845c2.729,0,4.4-.809,4.488-3.056.26-6.543.336-9.814.351-16.357,0-2.247-1.652-3.055-4.409-3.055Z" transform="translate(0 -49.326)"/><path class="cls-4" d="M717.252,224.591h-8.223c-.349-2.282-.535-3.424-.932-5.707H697.922c-.726,2.283-1.1,3.425-1.854,5.707h-7.647c3.463-10.457,6.649-20.84,9.589-31.455h12.318A306.044,306.044,0,0,1,717.252,224.591Zm-18.009-9.976h8.021c-1.176-6.363-1.856-9.544-3.4-15.907h-.153C702.077,205.071,701.171,208.252,699.243,214.615Z" transform="translate(0 -49.326)"/><path class="cls-4" d="M742.993,224.591c-.318-.809-.528-1.3-.212-3.864.243-1.977.355-2.966.559-4.943.3-2.921-1.219-4-4.882-4h-2.789c-.4,5.123-.668,7.685-1.318,12.807h-8a235.063,235.063,0,0,0,1.808-31.455h12.38c8.456,0,12.062,2.381,11.865,7.234-.04.989-.064,1.483-.116,2.472-.171,3.235-2.013,5.3-5.663,6.336l-.007.09c3.927,1.033,5.021,3.37,4.649,6.65-.22,1.942-.34,2.912-.6,4.854a6,6,0,0,0,.31,3.819ZM736.35,197.63c-.066,3.864-.142,5.8-.372,9.66h3.168c3.016,0,4.91-.808,5.039-3.325.064-1.24.092-1.86.138-3.1.083-2.247-1.155-3.235-4.042-3.235Z" transform="translate(0 -49.326)"/><path class="cls-4" d="M772.331,212.054c-1.1,1.15-1.654,1.725-2.766,2.876-.512,3.864-.815,5.8-1.5,9.661h-7.688a187.767,187.767,0,0,0,2.861-31.455H771.2c-.078,5.446-.23,8.169-.723,13.616h.143c4.543-5.447,6.746-8.17,10.92-13.616h7.83c-4.492,5.608-6.864,8.412-11.758,14.02a147.249,147.249,0,0,1,7.928,17.435h-7.729C775.846,219.576,774.748,217.069,772.331,212.054Z" transform="translate(0 -49.326)"/><path class="cls-4" d="M796.5,200.685c.418-5.033,4.626-7.909,12.145-7.909s11.471,2.876,10.915,7.909a129.025,129.025,0,0,1-2.729,16.357c-1.111,5.033-5.772,7.909-12.942,7.909s-10.48-2.876-9.568-7.909A142.747,142.747,0,0,0,796.5,200.685Zm5.243,16.671c-.44,2.247.848,3.1,3.193,3.1s4.016-.854,4.486-3.1a133.008,133.008,0,0,0,2.638-16.986c.222-2.246-1.245-3.1-3.67-3.1s-4,.854-4.2,3.1A138.037,138.037,0,0,1,801.739,217.356Z" transform="translate(0 -49.326)"/><path class="cls-4" d="M1138.372,321.116c-2.535,1.53-3.856,2.3-6.6,3.825-4.334,2.418-7.825,1.23-9.454-3.128a88.754,88.754,0,0,1-4.124-13.777c-.987-4.358.714-7.919,4.339-10.337,2.294-1.53,3.39-2.3,5.474-3.825A104.075,104.075,0,0,0,1138.372,321.116Zm-5.994-1.474a91.017,91.017,0,0,1-6.879-19.459c-.811.546-1.224.818-2.062,1.363-1.182.77-1.78,1.932-1.295,3.878a89.633,89.633,0,0,0,4.607,14.165c.783,1.946,1.937,2.185,3.281,1.416C1130.982,320.46,1131.452,320.187,1132.378,319.642Z" transform="translate(0 -49.326)"/><path class="cls-4" d="M1097.109,312.252c1.937-.976,2.887-1.464,4.749-2.44.467,1.809.726,2.714,1.3,4.524,2.307-1.187,3.432-1.78,5.625-2.967,0-2.144.019-3.216.1-5.36,1.584-.888,2.36-1.332,3.879-2.22a134.172,134.172,0,0,0,2.451,29.7c-2.94,1.416-4.451,2.123-7.548,3.539C1101.643,327.119,1099.62,322.163,1097.109,312.252Zm11.739,3.122c-1.766.932-2.667,1.4-4.5,2.33a77.265,77.265,0,0,0,5.668,12.633l.092-.045A115.642,115.642,0,0,1,1108.848,315.374Z" transform="translate(0 -49.326)"/><path class="cls-4" d="M1080.738,320.034c.277.569.447.909.47,3.127.017,1.712.042,2.568.129,4.281.128,2.529,1.369,2.98,3.866,1.881.759-.335,1.137-.5,1.889-.836a87.9,87.9,0,0,1-.6-11.091c2.071-.967,3.09-1.451,5.091-2.418.271,10.9,1.064,16.345,4.321,27.242-3.42,1.459-5.169,2.189-8.739,3.649-6.128,2.5-9.467,1.52-10.137-2.683-.137-.857-.2-1.285-.319-2.141-.387-2.8.712-5.1,3.166-7.07l-.007-.077c-2.942.314-4.061-1.314-4.137-4.155-.045-1.681-.051-2.522-.03-4.2a5.257,5.257,0,0,0-.51-3.044C1077.443,321.511,1078.553,321.019,1080.738,320.034Zm8.431,20.712c-.778-3.347-1.093-5.02-1.583-8.367-.865.378-1.3.567-2.175.946-2.085.9-3.321,2.151-2.991,4.329.163,1.074.252,1.611.445,2.685.348,1.947,1.461,2.429,3.522,1.572C1087.508,341.445,1088.064,341.212,1089.169,340.746Z" transform="translate(0 -49.326)"/><path class="cls-4" d="M1060.2,339.443c.762-1.295,1.144-1.943,1.91-3.238.057-3.347.152-5.02.463-8.367,2.354-.967,3.515-1.451,5.807-2.418-.783,10.9-.542,16.345,1.558,27.241-2.537.968-3.82,1.451-6.414,2.418a84.494,84.494,0,0,1-1.295-11.791l-.112.044c-2.974,5.965-4.42,8.948-7.2,14.913-2.665.967-4.011,1.451-6.727,2.418,3.2-6.2,4.863-9.3,8.259-15.5a73.778,73.778,0,0,1-7.857-11.737c2.558-.993,3.821-1.49,6.318-2.484A70.824,70.824,0,0,0,1060.2,339.443Z" transform="translate(0 -49.326)"/><path class="cls-4" d="M1041.094,356.477c.14,4.36-3.219,8.147-10.184,10.521s-11.055,1.18-10.934-3.179a90.166,90.166,0,0,1,1.346-14.165c.7-4.358,4.968-8.146,11.4-10.52s9.33-1.18,8.884,3.179A88.074,88.074,0,0,0,1041.094,356.477Zm-6.007-12.019c.243-1.946-.942-2.2-3.05-1.431s-3.59,1.991-3.87,3.937a89.431,89.431,0,0,0-1.123,14.711c-.01,1.945,1.438,2.2,3.672,1.431s3.573-1.992,3.545-3.938A88.746,88.746,0,0,1,1035.087,344.458Z" transform="translate(0 -49.326)"/><path class="cls-4" d="M594.226,467.694c.213-2.65.33-3.975.594-6.625.418-4.188,1.2-4.874,2.269-2.357,1.352,3.182,2.087,4.772,3.707,7.954,1.28,2.517,1.818,5.943,1.507,10.131-.2,2.65-.273,3.974-.393,6.624A88.689,88.689,0,0,1,594.226,467.694Zm1.26-1.942a93.5,93.5,0,0,0,5.382,11.235c.066-.944.1-1.416.178-2.36a6.567,6.567,0,0,0-.626-3.661c-1.7-3.271-2.461-4.907-3.854-8.178-.478-1.124-.725-.729-.856.6C595.616,464.336,595.572,464.808,595.486,465.752Z" transform="translate(0 -49.326)"/><path class="cls-4" d="M605.9,451.591c-.373,1.691-.547,2.536-.872,4.227-.659-.853-.98-1.279-1.609-2.131-.391,2.056-.57,3.084-.9,5.14.533,1.431.808,2.147,1.377,3.577-.233,1.538-.34,2.307-.538,3.845a155.673,155.673,0,0,1-6.656-19.992c.389-2.452.6-3.678,1.062-6.13A96.927,96.927,0,0,0,605.9,451.591Zm-4.352,4.569c.266-1.615.407-2.422.71-4.037-1.688-2.389-2.475-3.584-3.942-5.973l-.013.076C599.5,450.2,600.136,452.187,601.552,456.16Z" transform="translate(0 -49.326)"/><path class="cls-4" d="M609.53,438.111c-.285-.176-.466-.27-1.121-1.551-.506-.989-.755-1.483-1.247-2.471-.726-1.461-1.251-1.163-1.8.742-.167.578-.25.867-.412,1.446,1.229,2.561,1.868,3.842,3.2,6.4-.476,1.676-.7,2.513-1.127,4.189a168.061,168.061,0,0,1-7.345-15.729c.6-2.528.923-3.792,1.619-6.319,1.194-4.341,2.357-5.015,3.49-2.589.23.495.347.742.58,1.236a10.131,10.131,0,0,1,.623,5.909l.022.045c.912-1.578,1.729-1.094,2.556.545.488.971.736,1.457,1.237,2.428.395.763.7,1.287,1.157,1.453C610.361,435.553,610.075,436.406,609.53,438.111ZM601.7,429.2c.848,1.932,1.284,2.9,2.185,4.83.182-.655.274-.982.462-1.637a5.78,5.78,0,0,0-.035-4.175c-.288-.621-.431-.931-.714-1.551-.514-1.123-.929-.97-1.346.515C602.024,427.989,601.914,428.393,601.7,429.2Z" transform="translate(0 -49.326)"/><path class="cls-4" d="M612.258,417.031a5.262,5.262,0,0,0-.248,2.732c1.009,1.933,1.522,2.9,2.569,4.831-.719,1.675-1.064,2.513-1.724,4.188-3.361-6.291-5.223-9.437-5.943-15.728,1.254-1.675,1.9-2.513,3.229-4.188.4,2.723.542,4.085.785,6.808l.063-.075c1.574-4.886,2.327-7.329,3.664-12.215,1.428-1.675,2.161-2.513,3.664-4.188-1.483,5.134-2.317,7.7-4.06,12.835,2.446,1.158,3.71,1.736,6.363,2.893-1.706,1.721-2.795,2.581-3.614,4.3A40.019,40.019,0,0,1,612.258,417.031Z" transform="translate(0 -49.326)"/><path class="cls-4" d="M622.91,398.894c-.513-2.516,1.155-6.2,5.291-10.311s7.125-4.921,7.853-2.4c.945,3.271,1.326,4.907,1.994,8.178.514,2.517-1.941,6.2-6.477,10.313s-6.953,4.92-7.3,2.4C623.83,403.8,623.577,402.166,622.91,398.894Zm5.739,4.148c.177,1.124,1.126.713,2.582-.619s2.326-2.6,2.123-3.72c-.613-3.4-.963-5.1-1.856-8.494-.3-1.123-1.3-.712-2.665.621s-2.08,2.6-1.818,3.72C627.809,397.947,628.114,399.645,628.649,403.042Z" transform="translate(0 -49.326)"/><path class="cls-4" d="M1047.705,85.834c3.542,3.06,5.226,4.59,8.429,7.649,5.063,4.836,5.553,7.21,2.513,7.21h-9.718c-3.11,0-7.3-2.374-13.248-7.21-3.761-3.059-5.742-4.589-9.918-7.649Zm2.473,4.836h-14.985c1.365,1.09,2.035,1.635,3.35,2.725,1.856,1.539,3.442,2.462,4.888,2.462h10.414c1.416,0,.973-.923-.681-2.462C1051.991,92.305,1051.394,91.76,1050.178,90.67Z" transform="translate(0 -49.326)"/><path class="cls-4" d="M1064.4,122.588c-1.474-1.952-2.246-2.928-3.866-4.879l2.474-.836c-1.956-2.374-2.987-3.561-5.159-5.935-1.618-.334-2.434-.5-4.085-.835-1.688-1.776-2.564-2.664-4.381-4.44,9.591,1.969,14.118,2.954,22.62,4.924,2.3,2.831,3.382,4.246,5.421,7.077C1072.31,119.634,1069.735,120.619,1064.4,122.588Zm-3.559-11.034c1.657,1.864,2.452,2.8,3.979,4.66,2.75-.915,4.112-1.372,6.828-2.286l-.07-.088C1067.416,112.925,1065.268,112.468,1060.845,111.554Z" transform="translate(0 -49.326)"/><path class="cls-4" d="M1074.359,138.153c.272-.263.434-.439,1.723-.439h2.469c1.448,0,1.5-.967.282-3.166-.37-.668-.559-1-.944-1.67h-6.509c-1.165-1.935-1.781-2.9-3.083-4.836h15.93c1.725,2.919,2.522,4.379,3.994,7.3,2.526,5.011,2.253,7.165,0,7.165h-1.151c-1.512,0-2.924-1.011-4.472-3.165h-.044c.679,2.418-.113,3.209-1.716,3.209h-2.391c-.759,0-1.3.044-1.664.528C1075.882,141.107,1075.4,140.123,1074.359,138.153Zm10.449-5.275h-4.691c.429.756.638,1.134,1.048,1.89.977,1.8,1.913,2.9,3.115,2.9h1.474c1.062,0,1.172-.747.288-2.461C1085.562,134.276,1085.315,133.81,1084.808,132.878Z" transform="translate(0 -49.326)"/><path class="cls-4" d="M1087.436,155.256c-.718-.6-1.081-.9-1.817-1.494h-4.695c-.614-1.935-.95-2.9-1.686-4.836h14.778c.679,1.934.993,2.9,1.572,4.836h-6.127l.027.088c3.287,2.5,4.839,3.745,7.785,6.242.452,1.935.654,2.9,1.012,4.836-2.925-2.69-4.47-4.036-7.751-6.726a95.654,95.654,0,0,1-6.856,6.726c-.354-1.987-.56-2.981-1.034-4.968C1084.674,158.079,1085.627,157.138,1087.436,155.256Z" transform="translate(0 -49.326)"/><path class="cls-4" d="M1095.717,169.635c2.26,0,3.92,2.593,4.257,7.341s-.977,7.342-3.3,7.342H1088.8c-2.519,0-3.834-2.594-4.012-7.342s.873-7.341,3.3-7.341Zm-7.291,4.835c-1.1,0-1.448.967-1.381,2.506s.508,2.506,1.618,2.506h8.065c1.024,0,1.366-.967,1.263-2.506s-.574-2.506-1.587-2.506Z" transform="translate(0 -49.326)"/><path class="cls-4" d="M864.908,600.656c-9.273-2.649-13.813-3.974-22.69-6.624-14.033-4.188-21.478-7.615-22.575-10.131a17.785,17.785,0,0,1-1.827-7.954c-.072-2.516,5.568-1.83,17.172,2.357,7.344,2.65,11.1,3.975,18.785,6.625C855.5,591.22,857.58,594.365,864.908,600.656Zm-16.541-6.434c-3.87-4.494-5.049-6.741-6.149-11.235-2.734-.944-4.091-1.416-6.781-2.36-3.8-1.333-6.02-1.728-5.833-.6a19.453,19.453,0,0,0,3.11,8.178c.673,1.124,3.54,2.328,7.889,3.661C843.684,592.806,845.237,593.278,848.367,594.222Z" transform="translate(0 -49.326)"/><path class="cls-4" d="M771.626,553.1c3.8,1.69,5.737,2.535,9.69,4.225a22.331,22.331,0,0,0,.177,3.577c5.018,2.056,7.586,3.084,12.834,5.141,1.094-.853,1.665-1.279,2.857-2.131,3.813,1.538,5.751,2.308,9.687,3.846-6.23,4.585-9.694,6.878-9.316,11.463-6.684-2.452-9.888-3.678-16.042-6.129C773.033,565.094,770.822,561.1,771.626,553.1Zm20.744,14.543c-4.212-1.614-6.282-2.421-10.349-4.035.849,3.973,1.509,5.96,5.785,9.933l.2.077C787.78,571.227,789.569,570.032,792.37,567.642Z" transform="translate(0 -49.326)"/><path class="cls-4" d="M743.343,539.619c0,.633.008,1.032-1.306,2.313-1.015.988-1.719,1.483-1.608,2.471.165,1.46,1.7,2.838,5.2,4.741,1.065.579,1.6.869,2.694,1.448-.625-2.562,1.634-3.843,4.155-6.4,3.433,1.675,5.189,2.513,8.779,4.187-5.473,6.292-3.956,9.437-.94,15.729-5.591-2.528-8.256-3.793-13.349-6.321-8.742-4.34-12.237-7.4-12.649-9.823-.085-.494-.124-.741-.2-1.236-.241-1.617,1.121-1.775,4.3-.427l-.006-.045c-3.731-2.61-4.889-4.463-4.922-6.1-.02-.971-.734-1.457.369-2.428.869-.763,1.452-1.363,1.386-2.366C738.4,537.06,740.022,537.913,743.343,539.619Zm7.138,18.05c-.7-1.932-1.017-2.9-1.567-4.831-1.265-.655-1.889-.982-3.122-1.637-2.938-1.561-4.569-2.108-4.287-.851.139.621.214.931.37,1.551.282,1.123,1.635,2.264,4.564,3.75C748.031,556.458,748.84,556.862,750.481,557.669Z" transform="translate(0 -49.326)"/><path class="cls-4" d="M717.183,531.076l1.99-.143a38.073,38.073,0,0,1,1.109-4.832,37.011,37.011,0,0,0,5.894,4.189c-8.419,6.291-1.644,9.436-.884,15.727-2.807-1.675-4.162-2.512-6.782-4.187a44.757,44.757,0,0,1,.136-6.809l-.108-.075c-3.33.56-4.972.84-8.214,1.4-2.385-1.675-3.533-2.513-5.747-4.188,3.461-.474,5.216-.711,8.783-1.185a42.742,42.742,0,0,1-4.025-14.543c1.755,1.721,2.673,2.582,4.6,4.3A43.2,43.2,0,0,0,717.183,531.076Z" transform="translate(0 -49.326)"/><path class="cls-4" d="M700.313,524.308c-.716,2.516-3.853,1.709-8.329-2.4s-5.94-7.8-4.658-10.313a53.711,53.711,0,0,1,4.98-8.178c1.8-2.517,4.426-1.708,7.694,2.4s4.585,7.8,3.393,10.312A44.107,44.107,0,0,0,700.313,524.308Zm-.851-12.523c.627-1.123.147-2.388-.97-3.72s-2.076-1.744-2.795-.62a49.917,49.917,0,0,0-4.537,8.492c-.486,1.124.185,2.388,1.584,3.721s2.455,1.743,2.856.62A46.625,46.625,0,0,1,699.462,511.785Z" transform="translate(0 -49.326)"/><path class="cls-4" d="M775.729,90.817c5.156,1.529,7.745,2.294,12.934,3.824,8.2,2.418,12.864,5.979,13.153,10.338a46.265,46.265,0,0,1-.858,13.776c-.806,4.358-5.436,5.545-13.253,3.127-4.945-1.53-7.422-2.3-12.371-3.825C778.1,107.161,778.448,101.713,775.729,90.817Zm8.927,6.309c1.206,7.783.99,11.675-.588,19.458l4.435,1.363c2.5.769,4.185.531,4.522-1.415a45.961,45.961,0,0,0,.662-14.166c-.168-1.946-1.854-3.108-4.446-3.877Z" transform="translate(0 -49.326)"/><path class="cls-4" d="M834.276,136.435c-3.074-.976-4.616-1.464-7.711-2.44.169-2.144.214-3.216.217-5.36-3.815-1.187-5.728-1.78-9.565-2.967-1.034,1.809-1.588,2.714-2.765,4.524-2.84-.888-4.263-1.332-7.115-2.22,6.536-9.912,8.872-14.868,10.431-24.779,4.823,1.415,7.235,2.123,12.051,3.538A62.673,62.673,0,0,1,834.276,136.435ZM819.03,122.278c3.037.932,4.553,1.4,7.578,2.33a52.237,52.237,0,0,0-2.659-14.919l-.148-.044A50.408,50.408,0,0,1,819.03,122.278Z" transform="translate(0 -49.326)"/><path class="cls-4" d="M858.447,144.217c-.092-.832-.146-1.349.722-3.566.67-1.712.977-2.568,1.531-4.281.82-2.53-.5-3.947-4.012-5.046-1.065-.335-1.6-.5-2.668-.836a61.3,61.3,0,0,1-3.686,11.091c-2.99-.967-4.493-1.45-7.512-2.418,4.324-10.9,5.514-16.345,4.6-27.241,4.933,1.46,7.393,2.19,12.29,3.649,8.408,2.506,12.1,5.645,11.614,9.848-.1.857-.158,1.285-.292,2.141-.438,2.8-2.511,4.086-6.154,3.9l-.019.079c3.639,2.1,4.345,4.522,3.349,7.363-.589,1.682-.913,2.522-1.613,4.2a5.772,5.772,0,0,0-.661,3.571C862.956,145.694,861.458,145.2,858.447,144.217Zm-2.8-25.987a45.443,45.443,0,0,1-.818,8.367c1.224.377,1.835.566,3.055.944,2.91.9,4.851.751,5.172-1.428.159-1.075.225-1.612.33-2.686.191-1.945-1.032-3.175-3.873-4.032Z" transform="translate(0 -49.326)"/><path class="cls-4" d="M888.964,141.912c-1.278.7-1.924,1.046-3.227,1.743a74.23,74.23,0,0,1-3.875,8.366c-2.841-.967-4.272-1.451-7.152-2.418,4.219-7.857,7.407-18.259,7.585-27.24,3.182.967,4.767,1.45,7.921,2.417a47.358,47.358,0,0,1-2.063,11.792l.136.044c5.22-3.468,7.67-5.2,12.183-8.671,3.112.967,4.661,1.451,7.739,2.418-4.948,3.512-7.621,5.268-13.289,8.78A60.021,60.021,0,0,1,897.98,157.6c-2.816-.994-4.236-1.491-7.1-2.485A60.6,60.6,0,0,0,888.964,141.912Z" transform="translate(0 -49.326)"/><path class="cls-4" d="M914.143,139.255c1.268-4.359,5.684-5.552,13.006-3.179s10.624,6.161,8.9,10.521a74.718,74.718,0,0,1-7.244,14.165c-2.7,4.358-7.925,5.552-14.339,3.178s-8.422-6.161-6.14-10.52A64.445,64.445,0,0,0,914.143,139.255Zm.9,16.855c-1.086,1.946-.2,3.169,1.913,3.938s3.92.514,5.071-1.432a70.869,70.869,0,0,0,7.019-14.71c.692-1.946-.559-3.169-2.887-3.938s-3.98-.513-4.6,1.432A67.4,67.4,0,0,1,915.046,156.11Z" transform="translate(0 -49.326)"/><path class="cls-4" d="M1073.551,459.062h-13.78c-8.667,0-12.926-2.741-12.9-7.773.034-6.364.122-9.545.411-15.908.23-5.034,4.539-7.774,13.082-7.774h13.6C1073.51,438.063,1073.355,448.6,1073.551,459.062Zm-8.782-4.494c-.059-8.987.03-13.48.381-22.467h-4.843c-2.73,0-4.4.808-4.49,3.055-.26,6.543-.335,9.814-.35,16.357-.005,2.247,1.651,3.055,4.41,3.055Z" transform="translate(0 -49.326)"/><path class="cls-4" d="M1010.243,427.607h8.223c.349,2.283.535,3.424.931,5.706h10.177c.726-2.282,1.1-3.423,1.853-5.706h7.649c-3.464,10.457-6.65,20.839-9.591,31.455h-12.319A306.3,306.3,0,0,1,1010.243,427.607Zm18.01,9.976h-8.021c1.176,6.363,1.856,9.544,3.4,15.908h.152C1025.418,447.127,1026.324,443.946,1028.253,437.583Z" transform="translate(0 -49.326)"/><path class="cls-4" d="M984.5,427.607c.318.808.528,1.3.213,3.865-.244,1.976-.356,2.965-.56,4.942-.3,2.921,1.219,4,4.883,4h2.788c.4-5.123.668-7.684,1.318-12.807h8a235.062,235.062,0,0,0-1.807,31.455H986.953c-8.456,0-12.063-2.381-11.866-7.235.04-.988.063-1.482.115-2.471.171-3.235,2.014-5.3,5.666-6.336l.007-.089c-3.927-1.034-5.021-3.371-4.65-6.651.22-1.941.341-2.912.6-4.853a5.991,5.991,0,0,0-.313-3.82Zm6.643,26.961c.066-3.864.143-5.8.372-9.66H988.35c-3.017,0-4.911.808-5.041,3.324-.064,1.241-.091,1.861-.137,3.1-.084,2.247,1.157,3.235,4.043,3.235Z" transform="translate(0 -49.326)"/><path class="cls-4" d="M955.164,440.144c1.1-1.15,1.654-1.726,2.766-2.876.511-3.864.814-5.8,1.5-9.661h7.688a187.756,187.756,0,0,0-2.86,31.455h-7.966c.077-5.446.229-8.169.722-13.616h-.141c-4.544,5.447-6.746,8.17-10.921,13.616h-7.83c4.493-5.608,6.865-8.412,11.76-14.02a147.1,147.1,0,0,1-7.929-17.435h7.728C951.649,432.622,952.747,435.129,955.164,440.144Z" transform="translate(0 -49.326)"/><path class="cls-4" d="M931,451.513c-.417,5.032-4.625,7.908-12.144,7.908s-11.471-2.876-10.915-7.908a128.846,128.846,0,0,1,2.729-16.357c1.11-5.033,5.772-7.909,12.942-7.909s10.479,2.876,9.567,7.909A142.747,142.747,0,0,0,931,451.513Zm-5.243-16.671c.44-2.248-.847-3.1-3.193-3.1s-4.014.853-4.485,3.1a133.2,133.2,0,0,0-2.638,16.985c-.222,2.247,1.244,3.1,3.67,3.1s4-.854,4.2-3.1A137.666,137.666,0,0,1,925.756,434.842Z" transform="translate(0 -49.326)"/><path class="cls-4" d="M589.125,331.082c2.535-1.53,3.856-2.3,6.6-3.825,4.334-2.418,7.825-1.23,9.454,3.128a88.863,88.863,0,0,1,4.124,13.777c.987,4.358-.714,7.919-4.339,10.337-2.294,1.53-3.39,2.295-5.474,3.825A104.061,104.061,0,0,0,589.125,331.082Zm5.994,1.474A91.017,91.017,0,0,1,602,352.015c.811-.546,1.224-.819,2.062-1.364,1.182-.769,1.78-1.931,1.3-3.877a89.736,89.736,0,0,0-4.607-14.165c-.783-1.946-1.937-2.185-3.281-1.416C596.515,331.738,596.045,332.011,595.119,332.556Z" transform="translate(0 -49.326)"/><path class="cls-4" d="M630.388,339.946c-1.937.976-2.887,1.464-4.749,2.44-.467-1.81-.726-2.714-1.3-4.524-2.307,1.187-3.432,1.78-5.625,2.967,0,2.144-.019,3.216-.1,5.36-1.584.888-2.36,1.332-3.879,2.22a134.167,134.167,0,0,0-2.451-29.7c2.94-1.416,4.451-2.123,7.548-3.539C625.854,325.079,627.877,330.034,630.388,339.946Zm-11.739-3.122c1.766-.932,2.667-1.4,4.5-2.33a77.265,77.265,0,0,0-5.668-12.633l-.092.044A115.673,115.673,0,0,1,618.649,336.824Z" transform="translate(0 -49.326)"/><path class="cls-4" d="M646.759,332.164c-.277-.569-.447-.909-.47-3.126-.017-1.713-.043-2.569-.129-4.282-.128-2.529-1.369-2.98-3.866-1.881-.759.334-1.137.5-1.889.836a87.891,87.891,0,0,1,.6,11.091c-2.071.967-3.09,1.451-5.091,2.418-.271-10.9-1.064-16.345-4.321-27.242,3.42-1.459,5.169-2.189,8.739-3.649,6.128-2.506,9.466-1.52,10.137,2.683.137.856.2,1.285.319,2.141.386,2.8-.711,5.1-3.167,7.07l.008.077c2.942-.314,4.061,1.314,4.137,4.155.045,1.681.051,2.522.03,4.2a5.265,5.265,0,0,0,.51,3.044C650.054,330.687,648.944,331.179,646.759,332.164Zm-8.431-20.712c.778,3.347,1.093,5.02,1.583,8.367.865-.378,1.3-.567,2.174-.945,2.086-.9,3.322-2.152,2.992-4.33-.163-1.075-.252-1.612-.445-2.686-.348-1.946-1.461-2.428-3.522-1.571C639.989,310.753,639.433,310.986,638.328,311.452Z" transform="translate(0 -49.326)"/><path class="cls-4" d="M667.3,312.755c-.762,1.3-1.144,1.942-1.91,3.238-.057,3.347-.152,5.02-.463,8.367-2.354.967-3.515,1.45-5.807,2.417.783-10.9.542-16.344-1.558-27.241,2.537-.967,3.82-1.45,6.414-2.418a84.524,84.524,0,0,1,1.295,11.792l.112-.044c2.974-5.965,4.42-8.948,7.2-14.913,2.665-.967,4.011-1.451,6.727-2.418-3.2,6.2-4.863,9.3-8.259,15.5a73.816,73.816,0,0,1,7.857,11.736c-2.558.994-3.822,1.491-6.318,2.485A70.824,70.824,0,0,0,667.3,312.755Z" transform="translate(0 -49.326)"/><path class="cls-4" d="M686.4,295.72c-.14-4.359,3.219-8.146,10.184-10.52s11.055-1.18,10.934,3.178a90.048,90.048,0,0,1-1.346,14.166c-.7,4.359-4.968,8.146-11.4,10.52s-9.33,1.18-8.883-3.179A88.087,88.087,0,0,0,686.4,295.72Zm6.007,12.02c-.243,1.946.942,2.2,3.049,1.432s3.591-1.992,3.871-3.939a89.427,89.427,0,0,0,1.123-14.71c.01-1.945-1.439-2.2-3.671-1.432s-3.574,1.993-3.546,3.939A88.746,88.746,0,0,1,692.41,307.74Z" transform="translate(0 -49.326)"/><path class="cls-4" d="M1133.27,184.5c-.212,2.65-.329,3.975-.594,6.625-.417,4.188-1.2,4.873-2.268,2.357-1.352-3.182-2.087-4.772-3.707-7.954-1.281-2.517-1.818-5.943-1.507-10.131.2-2.65.273-3.974.393-6.624A88.614,88.614,0,0,1,1133.27,184.5Zm-1.259,1.941a93.56,93.56,0,0,0-5.382-11.234c-.066.944-.1,1.416-.178,2.36a6.567,6.567,0,0,0,.626,3.661c1.7,3.271,2.461,4.907,3.854,8.178.478,1.124.725.729.856-.6C1131.88,187.862,1131.925,187.39,1132.011,186.445Z" transform="translate(0 -49.326)"/><path class="cls-4" d="M1121.593,200.607c.373-1.691.547-2.536.872-4.227.658.853.98,1.279,1.609,2.131.391-2.056.57-3.084.9-5.14-.533-1.431-.808-2.147-1.377-3.577.232-1.538.34-2.307.538-3.845a155.673,155.673,0,0,1,6.656,19.992c-.389,2.452-.6,3.678-1.062,6.13A96.927,96.927,0,0,0,1121.593,200.607Zm4.352-4.569c-.266,1.615-.407,2.422-.711,4.037,1.689,2.389,2.476,3.584,3.943,5.973l.013-.076C1128,202,1127.361,200.012,1125.945,196.038Z" transform="translate(0 -49.326)"/><path class="cls-4" d="M1117.967,214.087c.285.175.466.27,1.121,1.551.506.989.755,1.483,1.247,2.471.725,1.461,1.251,1.163,1.8-.742.168-.578.251-.867.413-1.446-1.229-2.561-1.868-3.842-3.2-6.4.476-1.676.7-2.513,1.127-4.189a168.061,168.061,0,0,1,7.345,15.729c-.6,2.528-.923,3.792-1.619,6.319-1.2,4.341-2.357,5.015-3.49,2.589-.231-.5-.347-.742-.58-1.236a10.131,10.131,0,0,1-.623-5.909l-.022-.045c-.912,1.577-1.729,1.094-2.556-.546-.488-.971-.736-1.456-1.237-2.427-.395-.764-.7-1.287-1.157-1.453C1117.136,216.645,1117.422,215.792,1117.967,214.087ZM1125.8,223c-.848-1.932-1.284-2.9-2.185-4.83-.182.655-.274.982-.462,1.637a5.781,5.781,0,0,0,.035,4.175c.288.62.431.931.714,1.551.513,1.123.929.97,1.346-.515C1125.473,224.209,1125.583,223.805,1125.8,223Z" transform="translate(0 -49.326)"/><path class="cls-4" d="M1115.239,235.167a5.266,5.266,0,0,0,.248-2.733c-1.009-1.932-1.522-2.9-2.569-4.83.719-1.675,1.064-2.513,1.724-4.188,3.361,6.291,5.223,9.437,5.943,15.728-1.254,1.675-1.9,2.513-3.229,4.188-.4-2.723-.542-4.085-.785-6.808l-.063.075c-1.574,4.886-2.327,7.329-3.664,12.215-1.428,1.675-2.161,2.513-3.664,4.188,1.483-5.134,2.317-7.7,4.06-12.836-2.446-1.157-3.71-1.735-6.363-2.892,1.706-1.721,2.8-2.581,3.614-4.3A40.019,40.019,0,0,1,1115.239,235.167Z" transform="translate(0 -49.326)"/><path class="cls-4" d="M1104.587,253.3c.513,2.516-1.155,6.2-5.292,10.312s-7.124,4.921-7.852,2.4c-.945-3.271-1.326-4.907-1.994-8.178-.514-2.517,1.94-6.2,6.476-10.313s6.954-4.92,7.3-2.4C1103.667,248.4,1103.92,250.032,1104.587,253.3Zm-5.739-4.148c-.177-1.123-1.126-.713-2.582.62s-2.326,2.6-2.124,3.721c.614,3.4.964,5.1,1.857,8.493.3,1.123,1.3.712,2.665-.621s2.08-2.6,1.818-3.72C1099.688,254.251,1099.383,252.553,1098.848,249.155Z" transform="translate(0 -49.326)"/><path class="cls-4" d="M679.793,566.365c-3.542-3.06-5.226-4.59-8.43-7.65-5.063-4.836-5.552-7.209-2.513-7.209h9.719c3.11,0,7.3,2.373,13.247,7.209,3.761,3.06,5.743,4.59,9.918,7.65Zm-2.472-4.836h14.984c-1.365-1.09-2.035-1.635-3.35-2.726-1.856-1.538-3.442-2.461-4.887-2.461H673.653c-1.416,0-.973.923.681,2.461C675.507,559.894,676.1,560.439,677.321,561.529Z" transform="translate(0 -49.326)"/><path class="cls-4" d="M663.093,529.61c1.474,1.952,2.247,2.928,3.867,4.88-.993.334-1.488.5-2.474.836,1.956,2.373,2.987,3.56,5.159,5.934,1.617.334,2.434.5,4.084.836,1.688,1.776,2.564,2.664,4.381,4.439-9.591-1.969-14.117-2.954-22.619-4.923-2.3-2.831-3.382-4.246-5.421-7.077C655.188,532.565,657.763,531.58,663.093,529.61Zm3.559,11.035c-1.656-1.864-2.451-2.8-3.978-4.66-2.751.914-4.113,1.371-6.829,2.286l.07.088C660.081,539.273,662.229,539.731,666.652,540.645Z" transform="translate(0 -49.326)"/><path class="cls-4" d="M653.139,514.046c-.273.263-.435.439-1.724.439h-2.468c-1.448,0-1.5.967-.283,3.165.37.669.559,1,.944,1.671h6.509c1.166,1.934,1.782,2.9,3.084,4.836h-15.93c-1.725-2.919-2.522-4.379-3.994-7.3-2.526-5.011-2.254-7.164,0-7.164h1.151c1.513,0,2.925,1.01,4.473,3.164h.043c-.679-2.418.113-3.209,1.716-3.209h2.391c.759,0,1.3-.044,1.665-.527C651.616,511.092,652.1,512.076,653.139,514.046Zm-10.449,5.275h4.69c-.428-.756-.638-1.134-1.047-1.89-.977-1.8-1.913-2.9-3.115-2.9h-1.474c-1.063,0-1.173.746-.289,2.46C641.936,517.923,642.183,518.389,642.69,519.321Z" transform="translate(0 -49.326)"/><path class="cls-4" d="M640.061,496.943c.718.6,1.082.9,1.818,1.494h4.695c.613,1.934.949,2.9,1.685,4.835H633.481c-.679-1.934-.993-2.9-1.571-4.835h6.127l-.027-.088c-3.287-2.5-4.84-3.745-7.786-6.242-.451-1.935-.653-2.9-1.012-4.837,2.926,2.691,4.47,4.036,7.752,6.726a95.845,95.845,0,0,1,6.855-6.726c.354,1.988.56,2.981,1.034,4.969C642.823,494.12,641.871,495.061,640.061,496.943Z" transform="translate(0 -49.326)"/><path class="cls-4" d="M631.78,482.564c-2.26,0-3.92-2.594-4.256-7.342s.976-7.341,3.3-7.341H638.7c2.519,0,3.834,2.594,4.013,7.341s-.873,7.342-3.306,7.342Zm7.291-4.835c1.1,0,1.448-.968,1.381-2.507s-.507-2.506-1.618-2.506h-8.065c-1.024,0-1.366.968-1.262,2.506s.573,2.507,1.587,2.507Z" transform="translate(0 -49.326)"/><path class="cls-4" d="M862.589,51.542c9.273,2.649,13.813,3.974,22.69,6.624,14.033,4.188,21.478,7.615,22.574,10.131a17.758,17.758,0,0,1,1.827,7.954c.072,2.516-5.567,1.831-17.171-2.357-7.344-2.65-11.1-3.975-18.786-6.625C872,60.978,869.917,57.833,862.589,51.542Zm16.541,6.434c3.87,4.494,5.049,6.741,6.148,11.235,2.735.944,4.091,1.416,6.781,2.36,3.8,1.333,6.021,1.728,5.834.6A19.468,19.468,0,0,0,894.782,64c-.673-1.124-3.539-2.328-7.889-3.661C883.813,59.392,882.26,58.92,879.13,57.976Z" transform="translate(0 -49.326)"/><path class="cls-4" d="M955.87,99.1c-3.8-1.69-5.737-2.535-9.69-4.225A22.332,22.332,0,0,0,946,91.3c-5.017-2.056-7.585-3.084-12.833-5.14-1.093.852-1.665,1.278-2.857,2.13-3.813-1.538-5.75-2.307-9.686-3.846,6.23-4.585,9.693-6.878,9.315-11.463,6.685,2.452,9.889,3.678,16.042,6.129C954.463,87.1,956.674,91.1,955.87,99.1ZM935.126,84.556c4.212,1.614,6.282,2.421,10.349,4.035-.848-3.973-1.509-5.96-5.784-9.933l-.2-.077C939.716,80.971,937.927,82.166,935.126,84.556Z" transform="translate(0 -49.326)"/><path class="cls-4" d="M984.153,112.579c0-.633-.008-1.032,1.306-2.313,1.015-.988,1.719-1.483,1.608-2.471-.164-1.46-1.7-2.838-5.2-4.741-1.065-.579-1.6-.869-2.693-1.447.624,2.561-1.634,3.842-4.155,6.4-3.434-1.675-5.19-2.512-8.781-4.187,5.473-6.292,3.957-9.437.942-15.729,5.59,2.529,8.256,3.793,13.349,6.321,8.742,4.34,12.237,7.4,12.649,9.823.084.494.123.741.2,1.236.24,1.617-1.121,1.775-4.3.427l.007.045c3.73,2.61,4.889,4.463,4.922,6.1.02.971.734,1.457-.37,2.428-.87.763-1.452,1.363-1.386,2.366C989.093,115.138,987.474,114.285,984.153,112.579Zm-7.138-18.05c.7,1.933,1.018,2.9,1.567,4.831,1.265.655,1.889.982,3.122,1.637,2.939,1.561,4.57,2.108,4.288.851-.14-.621-.214-.931-.37-1.551-.282-1.123-1.636-2.264-4.565-3.75C979.465,95.74,978.657,95.336,977.015,94.529Z" transform="translate(0 -49.326)"/><path class="cls-4" d="M1010.313,121.122l-1.99.143a38.073,38.073,0,0,1-1.109,4.832,37.011,37.011,0,0,0-5.894-4.189c8.419-6.29,1.645-9.436.885-15.727,2.807,1.675,4.162,2.512,6.781,4.187a44.886,44.886,0,0,1-.135,6.809l.108.075c3.33-.56,4.971-.84,8.214-1.4,2.384,1.675,3.533,2.513,5.746,4.188-3.46.474-5.215.711-8.782,1.185a42.762,42.762,0,0,1,4.024,14.543c-1.755-1.721-2.673-2.582-4.6-4.3A43.106,43.106,0,0,0,1010.313,121.122Z" transform="translate(0 -49.326)"/><path class="cls-4" d="M1027.184,127.89c.715-2.516,3.853-1.709,8.328,2.4s5.94,7.8,4.659,10.313a53.72,53.72,0,0,1-4.981,8.178c-1.8,2.517-4.426,1.708-7.694-2.4s-4.584-7.8-3.392-10.312A44.107,44.107,0,0,0,1027.184,127.89Zm.851,12.523c-.628,1.124-.147,2.388.969,3.72s2.077,1.744,2.8.62a49.91,49.91,0,0,0,4.536-8.492c.486-1.124-.184-2.388-1.583-3.721s-2.455-1.743-2.856-.62A46.693,46.693,0,0,1,1028.035,140.413Z" transform="translate(0 -49.326)"/><path class="cls-4" d="M951.767,561.381c-5.156-1.53-7.745-2.295-12.934-3.825-8.2-2.418-12.863-5.979-13.153-10.337a46.305,46.305,0,0,1,.859-13.777c.805-4.358,5.435-5.545,13.252-3.127l12.372,3.825C949.4,545.036,949.048,550.484,951.767,561.381Zm-8.926-6.31c-1.207-7.783-.99-11.675.588-19.458l-4.436-1.363c-2.5-.769-4.185-.531-4.521,1.415a45.961,45.961,0,0,0-.663,14.166c.168,1.946,1.855,3.108,4.447,3.878Z" transform="translate(0 -49.326)"/><path class="cls-4" d="M893.221,515.762c3.073.976,4.616,1.464,7.711,2.44-.17,2.144-.215,3.216-.217,5.36,3.814,1.187,5.728,1.781,9.565,2.967,1.033-1.809,1.588-2.714,2.764-4.524,2.84.888,4.264,1.332,7.115,2.22-6.536,9.912-8.872,14.868-10.43,24.78l-12.052-3.539A62.672,62.672,0,0,1,893.221,515.762Zm15.244,14.157c-3.036-.932-4.552-1.4-7.576-2.329a52.167,52.167,0,0,0,2.659,14.918l.148.044A50.4,50.4,0,0,1,908.465,529.919Z" transform="translate(0 -49.326)"/><path class="cls-4" d="M869.049,507.98c.093.832.147,1.349-.722,3.566-.669,1.712-.977,2.569-1.531,4.281-.818,2.53.506,3.947,4.012,5.046l2.668.836a61.4,61.4,0,0,1,3.686-11.091c2.991.967,4.494,1.451,7.512,2.418-4.323,10.9-5.514,16.345-4.6,27.241-4.933-1.46-7.392-2.189-12.29-3.649-8.408-2.506-12.1-5.645-11.614-9.848.1-.856.159-1.285.292-2.141.438-2.8,2.511-4.086,6.154-3.9l.019-.078c-3.638-2.1-4.345-4.523-3.348-7.364.589-1.682.913-2.522,1.612-4.2a5.759,5.759,0,0,0,.662-3.571C864.54,506.5,866.038,507,869.049,507.98Zm2.8,25.987a45.424,45.424,0,0,1,.818-8.366l-3.055-.945c-2.909-.9-4.852-.751-5.172,1.429-.158,1.074-.225,1.611-.33,2.685-.19,1.945,1.032,3.175,3.874,4.033Z" transform="translate(0 -49.326)"/><path class="cls-4" d="M838.533,510.285c1.278-.7,1.924-1.045,3.228-1.743a74.044,74.044,0,0,1,3.874-8.366c2.841.967,4.271,1.451,7.151,2.418-4.219,7.857-7.406,18.259-7.585,27.24-3.182-.966-4.767-1.45-7.921-2.417a47.36,47.36,0,0,1,2.064-11.792l-.137-.044c-5.22,3.469-7.67,5.2-12.182,8.671-3.113-.967-4.662-1.451-7.74-2.418,4.949-3.512,7.621-5.268,13.289-8.78a59.989,59.989,0,0,1-3.057-18.462c2.815.994,4.235,1.491,7.1,2.485A60.664,60.664,0,0,0,838.533,510.285Z" transform="translate(0 -49.326)"/><path class="cls-4" d="M813.354,512.942c-1.269,4.359-5.685,5.553-13.006,3.179s-10.625-6.161-8.9-10.521a74.565,74.565,0,0,1,7.244-14.164c2.7-4.359,7.924-5.553,14.338-3.179s8.422,6.161,6.14,10.52A64.44,64.44,0,0,0,813.354,512.942Zm-.9-16.855c1.087-1.946.2-3.169-1.913-3.938s-3.919-.514-5.071,1.432a70.864,70.864,0,0,0-7.018,14.71c-.693,1.946.558,3.169,2.886,3.938s3.98.514,4.6-1.432A67.391,67.391,0,0,1,812.45,496.087Z" transform="translate(0 -49.326)"/><path class="cls-4" d="M653.946,193.136h13.781c8.667,0,12.925,2.742,12.9,7.775-.034,6.363-.122,9.544-.412,15.907-.229,5.033-4.537,7.774-13.08,7.774h-13.6C653.987,214.136,654.142,203.6,653.946,193.136Zm8.781,4.494c.059,8.988-.03,13.481-.381,22.469h4.844c2.729,0,4.4-.809,4.489-3.056.26-6.543.336-9.814.35-16.357,0-2.247-1.651-3.056-4.409-3.056Z" transform="translate(0 -49.326)"/><path class="cls-4" d="M717.253,224.592h-8.222c-.349-2.283-.536-3.424-.932-5.707H697.924c-.727,2.283-1.1,3.424-1.854,5.707h-7.648c3.463-10.457,6.649-20.84,9.59-31.456H710.33A305.853,305.853,0,0,1,717.253,224.592Zm-18.009-9.976h8.021c-1.175-6.363-1.855-9.544-3.4-15.907h-.153C702.079,205.072,701.173,208.253,699.244,214.616Z" transform="translate(0 -49.326)"/><path class="cls-4" d="M742.994,224.592c-.317-.809-.527-1.3-.212-3.864.244-1.977.356-2.966.559-4.943.3-2.921-1.218-4-4.882-4h-2.788c-.4,5.123-.668,7.684-1.319,12.807h-8a235.077,235.077,0,0,0,1.807-31.456h12.38c8.456,0,12.063,2.382,11.865,7.235-.04.989-.063,1.483-.115,2.472-.171,3.235-2.013,5.3-5.664,6.336l-.007.09c3.927,1.033,5.021,3.37,4.649,6.65-.22,1.942-.34,2.912-.6,4.853a5.992,5.992,0,0,0,.311,3.82Zm-6.642-26.962c-.066,3.865-.143,5.8-.372,9.661h3.167c3.017,0,4.91-.808,5.04-3.325.064-1.24.091-1.86.137-3.1.084-2.247-1.155-3.236-4.042-3.236Z" transform="translate(0 -49.326)"/><path class="cls-4" d="M772.332,212.055c-1.1,1.15-1.654,1.725-2.766,2.876-.511,3.864-.814,5.8-1.5,9.661h-7.687a187.768,187.768,0,0,0,2.86-31.456H771.2c-.078,5.447-.23,8.17-.723,13.616h.142c4.544-5.446,6.746-8.169,10.92-13.616h7.831c-4.492,5.609-6.865,8.413-11.759,14.021a147.249,147.249,0,0,1,7.928,17.435h-7.729C775.848,219.577,774.75,217.07,772.332,212.055Z" transform="translate(0 -49.326)"/><path class="cls-4" d="M796.5,200.686c.417-5.033,4.625-7.909,12.144-7.909s11.471,2.876,10.915,7.909a128.846,128.846,0,0,1-2.729,16.357c-1.111,5.033-5.772,7.909-12.942,7.909s-10.479-2.876-9.568-7.909A142.75,142.75,0,0,0,796.5,200.686Zm5.242,16.671c-.44,2.247.849,3.1,3.193,3.1s4.016-.854,4.486-3.1a133.008,133.008,0,0,0,2.638-16.986c.222-2.246-1.244-3.1-3.67-3.1s-4,.854-4.2,3.1A137.655,137.655,0,0,1,801.74,217.357Z" transform="translate(0 -49.326)"/></g></g></g></svg>