<svg id="Layer_1" data-name="Layer 1" xmlns="http://www.w3.org/2000/svg" xmlns:xlink="http://www.w3.org/1999/xlink" viewBox="0 0 1173.703 473.608"><defs><style>.cls-1,.cls-4{stroke:#000;stroke-miterlimit:10;stroke-width:2px;}.cls-2,.cls-4{fill:none;}.cls-3{clip-path:url(#clip-path);}.cls-5{mask:url(#mask);}.cls-6{filter:url(#luminosity-noclip);}</style><clipPath id="clip-path" transform="translate(-387.399 -307.501)"><circle class="cls-2" cx="960" cy="540" r="166.5"/></clipPath><filter id="luminosity-noclip" x="719.573" y="307.501" width="471.887" height="473.608" filterUnits="userSpaceOnUse" color-interpolation-filters="sRGB"><feFlood flood-color="#fff" result="bg"/><feBlend in="SourceGraphic" in2="bg"/></filter><mask id="mask" x="332.175" y="0" width="471.887" height="473.608" maskUnits="userSpaceOnUse"><g class="cls-6"><g transform="translate(-387.399 -307.501)"><circle class="cls-1" cx="960.75" cy="540" r="166.5"/></g></g></mask></defs><title>wrld</title><g class="cls-3"><path class="cls-4" d="M387.4,723.676c391.233.4,782.467-.4,1173.7,0" transform="translate(-387.399 -307.501)"/><path class="cls-4" d="M401.963,713.723c381.578,7.866,763-7.866,1144.574,0" transform="translate(-387.399 -307.501)"/><path class="cls-4" d="M416.527,703.77c372,15.165,743.442-15.164,1115.446,0" transform="translate(-387.399 -307.501)"/><path class="cls-4" d="M431.091,693.817c181.294,11.155,361.879,8.436,543.159,0s361.866-11.154,543.16,0" transform="translate(-387.399 -307.501)"/><path class="cls-4" d="M445.654,683.865c176.583,14.641,352.028,10.882,528.6,0s352.012-14.641,528.6,0" transform="translate(-387.399 -307.501)"/><path class="cls-4" d="M460.218,673.912c171.873,18.052,342.162,13.172,514.032,0s342.158-18.052,514.032,0" transform="translate(-387.399 -307.501)"/><path class="cls-4" d="M474.781,663.959c89.079,11.39,178.694,15.375,268.455,15.033C820.593,678.7,897.27,671,974.25,663.959c75.064-6.871,149.923-14.586,225.352-15.012,91.647-.518,183.162,3.381,274.117,15.012" transform="translate(-387.399 -307.501)"/><path class="cls-4" d="M489.345,654.006c86.327,13.085,173.379,17.621,260.636,17.064,75.2-.479,149.56-9.121,224.269-17.064,72.807-7.742,145.379-16.391,218.66-17.017,89.132-.761,178.056,3.649,266.245,17.017" transform="translate(-387.399 -307.501)"/><path class="cls-4" d="M503.909,644.053c83.556,14.722,168.032,19.76,252.8,18.953,73.052-.695,145.1-10.187,217.543-18.953,70.538-8.536,140.826-18.052,211.951-18.9,86.633-1.032,172.983,3.852,258.39,18.9" transform="translate(-387.399 -307.501)"/><path class="cls-4" d="M518.472,634.1c81.685,16.475,164.563,21.964,247.791,20.686,69.925-1.074,138.781-11.3,207.987-20.686s138.06-19.613,207.987-20.686c83.232-1.279,166.1,4.21,247.791,20.686" transform="translate(-387.399 -307.501)"/><path class="cls-4" d="M533.036,624.147c77.039,17.592,155.444,23.721,234.356,22.411C837.1,645.4,905.426,634.474,974.25,624.147c66.924-10.043,133.51-20.939,201.282-22.3,80.786-1.62,161.042,4.284,239.932,22.3" transform="translate(-387.399 -307.501)"/><path class="cls-4" d="M547.6,614.194c75.139,19.24,151.9,25.739,229.312,23.856,66.578-1.619,131.75-13.081,197.338-23.856,63.672-10.46,127.1-21.871,191.716-23.722,79.292-2.271,157.951,4.01,234.935,23.722" transform="translate(-387.399 -307.501)"/><path class="cls-4" d="M562.163,604.241c72.3,20.62,146.487,27.566,221.5,25.244,64.393-1.993,127.307-13.955,190.59-25.244,61.389-10.951,122.588-22.828,185.033-25.046,76.89-2.731,152.9,3.9,227.054,25.046" transform="translate(-387.399 -307.501)"/><path class="cls-4" d="M576.727,594.288c132.64,41.883,263.879,25.7,397.523,0s264.872-41.886,397.523,0" transform="translate(-387.399 -307.501)"/><path class="cls-4" d="M591.29,584.335c127.5,44.328,254.175,26.542,382.96,0s255.466-44.325,382.96,0" transform="translate(-387.399 -307.501)"/><path class="cls-4" d="M605.854,574.382c122.22,46.636,244.52,27.2,368.4,0s246.173-46.636,368.4,0" transform="translate(-387.399 -307.501)"/><path class="cls-4" d="M620.418,564.429c116.935,48.814,234.844,27.7,353.832,0s236.9-48.813,353.832,0" transform="translate(-387.399 -307.501)"/><path class="cls-4" d="M634.981,554.476c225.143,102.461,453.389-102.462,678.538,0" transform="translate(-387.399 -307.501)"/><path class="cls-4" d="M649.545,544.524c215.43,102.223,433.974-102.226,649.41,0" transform="translate(-387.399 -307.501)"/><path class="cls-4" d="M664.109,534.571c102.543,48.433,205.336,27.821,310.141,0s207.567-48.448,310.141,0" transform="translate(-387.399 -307.501)"/><path class="cls-4" d="M678.672,524.618c98.2,46.127,195.438,27.385,295.578,0s197.364-46.134,295.578,0" transform="translate(-387.399 -307.501)"/><path class="cls-4" d="M693.236,514.665c93.885,43.7,185.5,26.765,281.014,0,95.531-26.77,187.1-43.712,281.014,0" transform="translate(-387.399 -307.501)"/><path class="cls-4" d="M707.8,504.712c89.38,41.164,175.64,26,266.451,0,90.863-26.013,176.991-41.2,266.451,0" transform="translate(-387.399 -307.501)"/><path class="cls-4" d="M722.363,494.759c42.41,19.232,86.191,27.291,132.656,25.372,41.186-1.7,79.91-13.912,119.231-25.372,37.433-10.91,74.644-22.88,113.792-25.064,48.325-2.7,93.951,5.045,138.1,25.064" transform="translate(-387.399 -307.501)"/><path class="cls-4" d="M736.927,484.806c40.91,18.19,82.819,25.7,127.541,23.83,37.956-1.591,73.568-13.169,109.782-23.83,34.214-10.072,68.445-21.65,104.273-23.594,46.629-2.529,90.291,4.583,133.051,23.594" transform="translate(-387.399 -307.501)"/><path class="cls-4" d="M751.49,474.853c38.458,16.712,77.817,23.8,119.734,22.363C906.9,496,940.27,484.917,974.25,474.853c32.081-9.5,64.017-20.438,97.637-22.092,43.8-2.154,84.85,4.591,125.123,22.092" transform="translate(-387.399 -307.501)"/><path class="cls-4" d="M766.054,464.9A262.286,262.286,0,0,0,875.21,485.7c34.417-.694,66.286-11.1,99.04-20.8,30.837-9.129,61.22-19.438,93.576-20.6,40.083-1.434,77.611,5.011,114.62,20.6" transform="translate(-387.399 -307.501)"/><path class="cls-4" d="M780.617,454.947a255.237,255.237,0,0,0,101.351,18.971c32.176-.452,61.626-9.986,92.282-18.971,28.566-8.372,56.91-18.019,86.864-18.887,37.152-1.077,72.318,4.909,106.769,18.887" transform="translate(-387.399 -307.501)"/><path class="cls-4" d="M795.181,444.994a252.054,252.054,0,0,0,96.25,17.065c28.724-.418,55.4-9.229,82.819-17.065s54.1-16.646,82.82-17.064a252.033,252.033,0,0,1,96.249,17.064" transform="translate(-387.399 -307.501)"/><path class="cls-4" d="M809.745,435.041c57.251,20.667,107.212,15.848,164.505,0,57.276-15.843,107.142-20.707,164.505,0" transform="translate(-387.399 -307.501)"/><path class="cls-4" d="M824.308,425.088c52.2,17.329,97.8,13.624,149.942,0,51.948-13.572,97.94-17.264,149.942,0" transform="translate(-387.399 -307.501)"/><path class="cls-4" d="M838.872,415.135c46.865,13.791,88.522,11.158,135.378,0,46.988-11.189,88.314-13.848,135.378,0" transform="translate(-387.399 -307.501)"/><path class="cls-4" d="M853.436,405.182c41.731,10.3,79.128,8.644,120.814,0,41.668-8.639,79.1-10.3,120.815,0" transform="translate(-387.399 -307.501)"/><path class="cls-4" d="M868,395.23c72.006,13.545,140.484-13.548,212.5,0" transform="translate(-387.399 -307.501)"/><path class="cls-4" d="M882.563,385.277c61.535,6.758,121.839-6.759,183.374,0" transform="translate(-387.399 -307.501)"/><path class="cls-4" d="M897.126,375.324c51.418.331,102.83-.331,154.247,0" transform="translate(-387.399 -307.501)"/></g><g class="cls-5"><path class="cls-4" d="M779.07,428.11h11.6c7.293,0,10.9,2.313,10.91,6.559.013,5.369-.044,8.053-.258,13.421-.169,4.246-3.795,6.558-11,6.558H778.846C779.241,444.033,779.313,438.726,779.07,428.11Zm7.416,3.791c.1,7.583.045,11.374-.222,18.956h4.085c2.3,0,3.706-.682,3.772-2.577.192-5.52.239-8.28.213-13.8-.009-1.9-1.408-2.579-3.729-2.579Z" transform="translate(-387.399 -307.501)"/><path class="cls-4" d="M832.626,454.648h-6.947c-.309-1.925-.474-2.888-.823-4.814h-8.589c-.6,1.926-.907,2.889-1.533,4.814h-6.457c3.58-10.615,5.239-15.922,7.88-26.538h10.376A187.949,187.949,0,0,1,832.626,454.648Zm-15.271-8.416h6.768c-1.037-5.368-1.634-8.052-2.992-13.421H821C819.682,438.18,818.942,440.864,817.355,446.232Z" transform="translate(-387.399 -307.501)"/><path class="cls-4" d="M854.383,454.648c-.276-.682-.458-1.1-.215-3.26.188-1.668.273-2.5.426-4.17.226-2.465-1.069-3.374-4.163-3.374h-2.355c-.289,4.322-.493,6.483-1,10.8h-6.76a175.1,175.1,0,0,0,1.241-26.538h10.437c7.129,0,10.2,2.01,10.093,6.1-.022.834-.036,1.251-.069,2.085-.106,2.73-1.639,4.474-4.712,5.346l0,.076c3.327.871,4.278,2.843,4,5.61-.166,1.638-.258,2.457-.458,4.095a5.06,5.06,0,0,0,.3,3.222ZM848.508,431.9c-.014,3.261-.059,4.891-.215,8.151h2.675c2.546,0,4.137-.682,4.219-2.805.04-1.046.057-1.569.082-2.616.045-1.895-1.011-2.73-3.446-2.73Z" transform="translate(-387.399 -307.501)"/><path class="cls-4" d="M879.056,444.071c-.916.971-1.377,1.456-2.3,2.426-.385,3.261-.619,4.891-1.158,8.151h-6.508a139.876,139.876,0,0,0,2.043-26.538h6.721c.011,4.595-.081,6.893-.427,11.488h.12c3.77-4.6,5.592-6.893,9.035-11.488h6.611c-3.706,4.732-5.669,7.1-9.731,11.829a127.135,127.135,0,0,1,6.941,14.709h-6.548C882.124,450.418,881.164,448.3,879.056,444.071Z" transform="translate(-387.399 -307.501)"/><path class="cls-4" d="M899.321,434.48c.274-4.247,3.781-6.673,10.134-6.673s9.748,2.426,9.368,6.673a106,106,0,0,1-2.026,13.8c-.856,4.245-4.765,6.672-10.847,6.672s-8.925-2.427-8.226-6.672A117.207,117.207,0,0,0,899.321,434.48Zm4.694,14.064c-.338,1.9.767,2.616,2.754,2.616s3.391-.72,3.753-2.616a109.375,109.375,0,0,0,1.951-14.33c.149-1.895-1.106-2.616-3.156-2.616s-3.37.721-3.5,2.616A112.955,112.955,0,0,1,904.015,448.544Z" transform="translate(-387.399 -307.501)"/><path class="cls-4" d="M1190.111,543.047c-2.222,1.29-3.377,1.936-5.77,3.227-3.781,2.04-6.82,1.038-8.267-2.639a76.487,76.487,0,0,1-3.711-11.623c-.908-3.677.544-6.681,3.729-8.721,2.015-1.291,2.98-1.936,4.821-3.227C1183.24,529.257,1185.024,533.854,1190.111,543.047Zm-5.25-1.243a78.647,78.647,0,0,1-6.129-16.417c-.713.46-1.076.69-1.811,1.15a2.617,2.617,0,0,0-1.111,3.271,77.29,77.29,0,0,0,4.125,11.951c.693,1.642,1.7,1.844,2.874,1.195C1183.641,542.494,1184.051,542.264,1184.861,541.8Z" transform="translate(-387.399 -307.501)"/><path class="cls-4" d="M1153.95,535.569c1.677-.823,2.5-1.235,4.114-2.059.435,1.527.674,2.29,1.2,3.817,2-1,2.976-1.5,4.881-2.5-.027-1.808-.023-2.713.015-4.521,1.378-.749,2.054-1.124,3.377-1.873a102.615,102.615,0,0,0,2.415,25.059c-2.545,1.195-3.852,1.792-6.526,2.987C1158.126,548.113,1156.3,543.932,1153.95,535.569Zm10.3,2.633c-1.533.787-2.315,1.18-3.9,1.966a67.475,67.475,0,0,0,5.068,10.658l.079-.037A98.42,98.42,0,0,1,1164.25,538.2Z" transform="translate(-387.399 -307.501)"/><path class="cls-4" d="M1139.827,542.135c.251.479.4.766.463,2.637.045,1.445.082,2.167.186,3.612.154,2.134,1.235,2.514,3.383,1.586.654-.282.979-.422,1.626-.7a74.414,74.414,0,0,1-.7-9.358c1.786-.815,2.665-1.223,4.393-2.039a73.914,73.914,0,0,0,4.121,22.982c-2.943,1.232-4.447,1.848-7.513,3.079-5.263,2.114-8.15,1.282-8.792-2.263-.131-.722-.192-1.083-.307-1.806-.376-2.364.535-4.3,2.631-5.965l-.008-.065c-2.543.265-3.538-1.108-3.653-3.5-.068-1.419-.088-2.128-.1-3.546a4.4,4.4,0,0,0-.5-2.569C1136.991,543.38,1137.946,542.965,1139.827,542.135Zm7.626,17.474c-.714-2.824-1.009-4.236-1.482-7.06-.744.319-1.118.479-1.871.8-1.793.76-2.845,1.815-2.528,3.653.157.906.242,1.359.424,2.265.328,1.642,1.3,2.05,3.067,1.326C1146.025,560.2,1146.5,560,1147.453,559.609Z" transform="translate(-387.399 -307.501)"/><path class="cls-4" d="M1122.4,558.509c.634-1.093.952-1.639,1.59-2.732-.014-2.823.036-4.235.238-7.059,2.018-.816,3.014-1.224,4.981-2.04a73.554,73.554,0,0,0,1.809,22.983c-2.172.816-3.27,1.224-5.488,2.04a72.134,72.134,0,0,1-1.308-9.949l-.1.038c-2.462,5.033-3.657,7.549-5.952,12.582-2.277.816-3.426,1.224-5.745,2.04,2.651-5.233,4.025-7.849,6.841-13.082a65.559,65.559,0,0,1-7.012-9.9c2.186-.839,3.268-1.258,5.405-2.1A62.883,62.883,0,0,0,1122.4,558.509Z" transform="translate(-387.399 -307.501)"/><path class="cls-4" d="M1106.261,572.88c.2,3.677-2.622,6.873-8.554,8.876s-9.457,1-9.442-2.682a75.433,75.433,0,0,1,.856-11.951c.506-3.677,4.087-6.872,9.576-8.876s8.018-1,7.725,2.681A74.195,74.195,0,0,0,1106.261,572.88Zm-5.411-10.141c.168-1.642-.857-1.858-2.657-1.207s-3.045,1.68-3.245,3.322a74.951,74.951,0,0,0-.658,12.41c.028,1.641,1.277,1.857,3.178,1.208s3.031-1.681,2.97-3.322A74.56,74.56,0,0,1,1100.85,562.739Z" transform="translate(-387.399 -307.501)"/><path class="cls-4" d="M724.714,662.685c.192-2.236.3-3.354.531-5.589.371-3.534,1.026-4.113,1.9-1.989,1.1,2.684,1.7,4.026,3.01,6.71a16.45,16.45,0,0,1,1.138,8.547c-.193,2.236-.272,3.354-.4,5.59A77.593,77.593,0,0,1,724.714,662.685Zm1.05-1.638a81.849,81.849,0,0,0,4.339,9.477c.064-.8.1-1.194.171-1.991a5.591,5.591,0,0,0-.477-3.087c-1.37-2.761-1.989-4.141-3.119-6.9-.388-.948-.6-.614-.713.51C725.882,659.852,725.842,660.25,725.764,661.047Z" transform="translate(-387.399 -307.501)"/><path class="cls-4" d="M734.56,649.1c-.329,1.426-.482,2.139-.771,3.565-.542-.719-.807-1.078-1.325-1.8-.345,1.735-.5,2.6-.8,4.337.431,1.207.653,1.811,1.112,3.018-.21,1.3-.308,1.946-.489,3.243A141.07,141.07,0,0,1,726.9,644.6c.338-2.068.52-3.1.919-5.172A83.58,83.58,0,0,0,734.56,649.1Zm-3.682,3.855c.236-1.362.361-2.043.628-3.4-1.392-2.016-2.043-3.024-3.257-5.04l-.011.064C729.211,647.925,729.731,649.6,730.878,652.954Z" transform="translate(-387.399 -307.501)"/><path class="cls-4" d="M737.711,637.727c-.239-.149-.39-.228-.933-1.309-.42-.834-.627-1.251-1.036-2.085-.6-1.233-1.047-.981-1.521.626-.144.488-.215.732-.355,1.22,1.02,2.161,1.549,3.242,2.653,5.4-.413,1.413-.609,2.12-.979,3.534-2.7-5.308-3.895-7.962-6.081-13.27.514-2.133.789-3.2,1.382-5.332,1.017-3.663,2-4.232,2.947-2.184.193.417.29.625.486,1.042a8.526,8.526,0,0,1,.5,4.985l.018.038c.775-1.33,1.462-.923,2.15.461.408.819.614,1.228,1.031,2.047.328.645.583,1.086.966,1.226C738.427,635.568,738.18,636.288,737.711,637.727Zm-6.547-7.519c.708,1.63,1.071,2.445,1.82,4.075.155-.552.235-.828.4-1.381a4.885,4.885,0,0,0-.013-3.523c-.24-.523-.359-.784-.6-1.308-.429-.947-.779-.819-1.134.434C731.443,629.186,731.349,629.526,731.164,630.208Z" transform="translate(-387.399 -307.501)"/><path class="cls-4" d="M741.021,619.942c-.333.922-.5,1.384-.84,2.306.13,1.63.976,2.445,1.851,4.075-.612,1.413-.906,2.12-1.47,3.534a32.866,32.866,0,0,1-4.193-13.269c1.057-1.413,1.6-2.12,2.72-3.534.386,2.3.531,3.446.774,5.744l.054-.065c1.29-4.122,1.9-6.183,2.971-10.3,1.2-1.413,1.818-2.12,3.083-3.534-1.19,4.332-1.867,6.5-3.3,10.83,2.112.976,3.2,1.464,5.467,2.44-1.44,1.452-2.144,2.178-3.518,3.629C743.138,621.053,742.42,620.683,741.021,619.942Z" transform="translate(-387.399 -307.501)"/><path class="cls-4" d="M749.905,604.643c-.478-2.123.893-5.232,4.369-8.7s6.018-4.151,6.68-2.028a70.368,70.368,0,0,1,1.822,6.9c.47,2.122-1.579,5.231-5.4,8.7s-5.874,4.152-6.194,2.029C750.766,608.783,750.526,607.4,749.905,604.643Zm4.963,3.5c.164.948.969.6,2.194-.524s1.953-2.19,1.767-3.139a73.225,73.225,0,0,0-1.706-7.165c-.271-.948-1.126-.6-2.27.523s-1.741,2.192-1.5,3.14C754.088,603.843,754.373,605.276,754.868,608.142Z" transform="translate(-387.399 -307.501)"/><path class="cls-4" d="M1116.379,340.529c2.865,2.582,4.227,3.873,6.818,6.454,4.1,4.081,4.462,6.084,1.947,6.084H1117.1c-2.576,0-6-2-10.815-6.084-3.045-2.581-4.65-3.872-8.03-6.454Zm1.95,4.08h-12.386c1.106.92,1.648,1.38,2.712,2.3,1.5,1.3,2.8,2.077,3.991,2.077h8.616c1.17,0,.821-.778-.517-2.077C1119.8,345.989,1119.313,345.529,1118.329,344.609Z" transform="translate(-387.399 -307.501)"/><path class="cls-4" d="M1129.533,371.539c-1.192-1.647-1.817-2.47-3.129-4.117.831-.282,1.244-.423,2.068-.705-1.583-2-2.417-3-4.175-5.008-1.335-.282-2.009-.423-3.371-.7-1.367-1.5-2.076-2.248-3.547-3.747,7.912,1.662,11.645,2.493,18.654,4.154,1.859,2.389,2.735,3.584,4.384,5.973C1136.146,369.046,1133.994,369.877,1129.533,371.539Zm-2.765-9.311c1.34,1.573,1.984,2.36,3.219,3.932,2.3-.771,3.434-1.157,5.7-1.929l-.057-.074C1132.192,363.386,1130.419,363,1126.768,362.228Z" transform="translate(-387.399 -307.501)"/><path class="cls-4" d="M1137.583,384.67c.23-.223.367-.371,1.439-.371h2.054c1.2,0,1.258-.816.274-2.671-.3-.564-.452-.846-.763-1.41h-5.412c-.942-1.632-1.441-2.448-2.494-4.08h13.23c1.395,2.463,2.04,3.7,3.229,6.158,2.041,4.228,1.8,6.046-.074,6.046h-.957c-1.258,0-2.422-.853-3.684-2.671h-.037c.537,2.04-.129,2.708-1.463,2.708h-1.989c-.631,0-1.082.037-1.391.445C1138.814,387.162,1138.423,386.331,1137.583,384.67Zm8.752-4.452h-3.9c.347.639.516.958.847,1.6.79,1.52,1.555,2.448,2.554,2.448h1.225c.883,0,.983-.631.269-2.077C1146.944,381.4,1146.745,381.005,1146.335,380.218Z" transform="translate(-387.399 -307.501)"/><path class="cls-4" d="M1148.3,399.1c-.593-.5-.893-.757-1.5-1.262h-3.909c-.495-1.632-.766-2.448-1.36-4.08h12.295c.549,1.632.8,2.448,1.269,4.08h-5.1l.022.075c2.716,2.107,4,3.16,6.434,5.267.364,1.632.527,2.448.815,4.08-2.42-2.27-3.7-3.405-6.411-5.675-2.116,2.27-3.252,3.4-5.75,5.675-.283-1.676-.449-2.515-.83-4.191C1145.974,401.48,1146.774,400.686,1148.3,399.1Z" transform="translate(-387.399 -307.501)"/><path class="cls-4" d="M1155.1,411.227c1.881,0,3.25,2.189,3.516,6.2s-.828,6.195-2.763,6.195H1149.3c-2.1,0-3.19-2.189-3.327-6.195s.753-6.2,2.778-6.2Zm-6.088,4.081c-.914,0-1.209.816-1.157,2.114s.416,2.114,1.34,2.114h6.714c.852,0,1.139-.816,1.057-2.114s-.469-2.114-1.313-2.114Z" transform="translate(-387.399 -307.501)"/><path class="cls-4" d="M952.971,778.88c-7.879-2.236-11.726-3.354-19.026-5.59-11.534-3.534-18.513-6.424-19.493-8.547a15.423,15.423,0,0,1-1.724-6.711c-.123-2.123,4.638-1.544,14.521,1.99,6.252,2.235,9.452,3.353,15.994,5.589C944.852,770.919,946.681,773.573,952.971,778.88Zm-14.083-5.429c-3.351-3.791-4.395-5.687-5.433-9.478-2.327-.8-3.481-1.195-5.77-1.991-3.231-1.125-5.115-1.459-4.93-.511a17.038,17.038,0,0,0,2.809,6.9c.592.947,3.032,1.963,6.726,3.087C934.908,772.256,936.228,772.654,938.888,773.451Z" transform="translate(-387.399 -307.501)"/><path class="cls-4" d="M873.306,738.756c3.234,1.426,4.884,2.139,8.25,3.565a18.947,18.947,0,0,0,.238,3.018c4.271,1.735,6.456,2.6,10.922,4.337.9-.719,1.37-1.078,2.351-1.8,3.246,1.3,4.895,1.946,8.245,3.244-5.124,3.869-6.876,5.8-6.616,9.672-5.6-2.069-8.291-3.1-13.455-5.172C876.171,748.876,872.823,745.5,873.306,738.756Zm17.8,12.271c-3.584-1.362-5.345-2.043-8.806-3.405.81,3.352,2.673,5.028,6.239,8.381l.164.064C888.544,754.051,888.811,753.043,891.11,751.027Z" transform="translate(-387.399 -307.501)"/><path class="cls-4" d="M849.219,727.385c.012.533-.837.87-.759,1.95.06.834.1,1.252.2,2.086.15,1.232,1.448,2.394,4.4,4,.9.489,1.354.733,2.275,1.222-.538-2.161-.4-3.242,1.656-5.4,2.926,1.413,4.422,2.12,7.481,3.534-4.451,5.308-1.549,7.962.964,13.269-4.7-2.133-6.943-3.2-11.231-5.333-7.363-3.662-10.313-6.24-10.672-8.288-.073-.417-.107-.625-.171-1.042-.211-1.365.932-1.5,3.618-.36l-.006-.038c-3.157-2.2-4.147-3.767-4.192-5.151-.026-.819-.03-1.228-.014-2.047a3.169,3.169,0,0,0-.455-2C845.009,725.226,846.389,725.945,849.219,727.385Zm7.954,15.228c-.588-1.63-.856-2.445-1.324-4.076-1.067-.552-1.594-.828-2.634-1.381-2.479-1.317-3.855-1.779-3.613-.718.12.523.184.785.317,1.309.24.947,1.383,1.911,3.849,3.163C855.11,741.591,855.791,741.932,857.173,742.613Z" transform="translate(-387.399 -307.501)"/><path class="cls-4" d="M828.977,720.177l1.669-.121a33.034,33.034,0,0,1,.855-4.076c1.783,1.414,2.71,2.121,4.641,3.534a36.661,36.661,0,0,0-.205,13.27c-2.372-1.414-3.518-2.121-5.734-3.534a39.618,39.618,0,0,1,.054-5.744l-.093-.064c-2.792.473-4.169.709-6.892,1.182-2.021-1.414-3-2.12-4.875-3.534,2.9-.4,4.377-.6,7.367-1a37.8,37.8,0,0,1-3.623-12.27c1.5,1.452,2.291,2.178,3.937,3.63A38.2,38.2,0,0,0,828.977,720.177Z" transform="translate(-387.399 -307.501)"/><path class="cls-4" d="M814.72,714.469c-.565,2.123-3.211,1.441-7.028-2.028s-5.1-6.578-4.075-8.7a45.409,45.409,0,0,1,4-6.9c1.444-2.122,3.658-1.44,6.484,2.029s4.01,6.578,3.061,8.7A37.9,37.9,0,0,0,814.72,714.469Zm-.939-10.566c.5-.948.073-2.014-.891-3.139s-1.773-1.471-2.351-.523a42.453,42.453,0,0,0-3.632,7.165c-.389.948.195,2.015,1.389,3.139s2.087,1.471,2.4.523A39.913,39.913,0,0,1,813.781,703.9Z" transform="translate(-387.399 -307.501)"/><path class="cls-4" d="M882.451,341.789c4.377,1.29,6.575,1.936,10.98,3.227,6.962,2.04,11.013,5.044,11.428,8.722a38.266,38.266,0,0,1-.209,11.622c-.523,3.678-4.366,4.679-10.991,2.639l-10.485-3.227C885.119,355.579,885.2,350.982,882.451,341.789Zm7.734,5.323c1.333,6.567,1.3,9.85.25,16.416l3.76,1.15c2.122.649,3.522.448,3.736-1.193a38.117,38.117,0,0,0,.021-11.952c-.217-1.641-1.676-2.622-3.875-3.271Z" transform="translate(-387.399 -307.501)"/><path class="cls-4" d="M933.145,380.277c-2.607-.824-3.916-1.236-6.54-2.059.075-1.809.079-2.713.011-4.521-3.236-1-4.86-1.5-8.115-2.5-.8,1.527-1.241,2.291-2.169,3.818-2.409-.75-3.616-1.124-6.034-1.874,5.16-8.362,6.935-12.543,7.836-20.906,4.1,1.195,6.143,1.792,10.232,2.987C932.87,365.241,933.592,370.253,933.145,380.277Zm-13.238-11.945c2.576.787,3.862,1.18,6.429,1.967a44.453,44.453,0,0,0-2.77-12.588l-.124-.036A40.17,40.17,0,0,1,919.907,368.332Z" transform="translate(-387.399 -307.501)"/><path class="cls-4" d="M953.662,386.842c-.1-.7-.163-1.138.5-3.008.51-1.445.741-2.168,1.151-3.612.606-2.135-.553-3.33-3.531-4.258-.9-.282-1.358-.423-2.266-.7a49.115,49.115,0,0,1-2.741,9.356c-2.54-.816-3.815-1.224-6.377-2.04,3.3-9.193,4.105-13.79,2.911-22.983,4.19,1.232,6.28,1.848,10.441,3.079,7.144,2.114,10.364,4.763,10.1,8.31-.053.722-.087,1.083-.17,1.8-.268,2.364-1.966,3.448-5.029,3.294l-.012.066c3.123,1.775,3.8,3.817,3.052,6.213-.441,1.418-.687,2.128-1.223,3.546a4.82,4.82,0,0,0-.449,3.014C957.493,388.089,956.22,387.673,953.662,386.842Zm-3.215-21.925a37.412,37.412,0,0,1-.385,7.059c1.04.319,1.559.478,2.6.8,2.47.76,4.094.632,4.287-1.206.095-.906.132-1.359.181-2.265.089-1.642-.981-2.68-3.395-3.4Z" transform="translate(-387.399 -307.501)"/><path class="cls-4" d="M979.218,384.9c-1.051.588-1.582.882-2.656,1.47a58.619,58.619,0,0,1-3,7.06c-2.416-.816-3.633-1.224-6.082-2.041,4.247-9.193,5.565-13.789,5.463-22.982,2.7.816,4.053,1.224,6.736,2.04a38.648,38.648,0,0,1-1.316,9.949l.117.037c4.267-2.926,6.264-4.389,9.925-7.315,2.649.816,3.966,1.224,6.586,2.04-4.027,2.963-6.211,4.444-10.855,7.407a50.829,50.829,0,0,1,3.143,15.575c-2.4-.838-3.607-1.257-6.044-2.1A51.21,51.21,0,0,0,979.218,384.9Z" transform="translate(-387.399 -307.501)"/><path class="cls-4" d="M1000.283,382.654c.917-3.677,4.581-4.684,10.821-2.681s9.156,5.2,7.853,8.876a58.96,58.96,0,0,1-5.641,11.951c-2.144,3.677-6.513,4.684-11.982,2.681s-7.268-5.2-5.482-8.876A51.311,51.311,0,0,0,1000.283,382.654Zm1.307,14.22c-.855,1.643-.077,2.675,1.729,3.323s3.316.434,4.226-1.208a56.133,56.133,0,0,0,5.431-12.41c.516-1.642-.579-2.673-2.563-3.322s-3.364-.435-3.82,1.208A53.5,53.5,0,0,1,1001.59,396.874Z" transform="translate(-387.399 -307.501)"/><path class="cls-4" d="M1131.968,660.5h-11.6c-7.3,0-10.9-2.313-10.909-6.559-.014-5.368.043-8.052.257-13.42.169-4.247,3.794-6.559,11-6.559h11.472C1131.8,644.579,1131.725,649.887,1131.968,660.5Zm-7.417-3.791c-.1-7.582-.045-11.374.221-18.956h-4.084c-2.3,0-3.707.682-3.773,2.578-.191,5.52-.239,8.28-.212,13.8.009,1.9,1.408,2.578,3.729,2.578Z" transform="translate(-387.399 -307.501)"/><path class="cls-4" d="M1078.412,633.964h6.945c.31,1.925.474,2.888.825,4.814h8.588c.6-1.926.907-2.889,1.533-4.814h6.458c-3.581,10.615-5.239,15.923-7.881,26.538H1084.5A187.774,187.774,0,0,1,1078.412,633.964Zm15.271,8.416h-6.769c1.036,5.368,1.633,8.052,2.991,13.421h.129C1091.355,650.432,1092.1,647.748,1093.683,642.38Z" transform="translate(-387.399 -307.501)"/><path class="cls-4" d="M1056.655,633.964c.275.682.457,1.1.215,3.26-.188,1.668-.273,2.5-.426,4.17-.226,2.464,1.068,3.374,4.163,3.374h2.353c.289-4.321.494-6.482,1-10.8h6.762a175.1,175.1,0,0,0-1.241,26.538h-10.439c-7.128,0-10.2-2.009-10.092-6.1.022-.834.036-1.251.069-2.085.106-2.73,1.639-4.474,4.711-5.345l.005-.076c-3.326-.872-4.279-2.844-4-5.611.166-1.638.258-2.457.459-4.095a5.068,5.068,0,0,0-.3-3.222Zm5.873,22.747c.014-3.26.059-4.89.215-8.151h-2.673c-2.546,0-4.138.682-4.22,2.805-.04,1.046-.057,1.569-.082,2.616-.045,1.895,1.01,2.73,3.446,2.73Z" transform="translate(-387.399 -307.501)"/><path class="cls-4" d="M1031.98,644.542c.917-.971,1.378-1.456,2.305-2.427.386-3.26.62-4.891,1.158-8.151h6.507a139.882,139.882,0,0,0-2.043,26.538h-6.72c-.01-4.595.081-6.893.428-11.488h-.122c-3.769,4.6-5.591,6.893-9.034,11.488h-6.611c3.706-4.731,5.669-7.1,9.731-11.829a126.9,126.9,0,0,1-6.942-14.709h6.548C1028.912,638.2,1029.873,640.31,1031.98,644.542Z" transform="translate(-387.399 -307.501)"/><path class="cls-4" d="M1011.716,654.133c-.274,4.246-3.781,6.672-10.134,6.672s-9.748-2.426-9.368-6.672a105.824,105.824,0,0,1,2.025-13.8c.857-4.246,4.766-6.672,10.847-6.672s8.927,2.426,8.227,6.672A117.419,117.419,0,0,0,1011.716,654.133Zm-4.7-14.066c.338-1.895-.766-2.615-2.754-2.615s-3.39.72-3.752,2.615a109.366,109.366,0,0,0-1.951,14.331c-.149,1.895,1.105,2.616,3.156,2.616s3.369-.721,3.5-2.616A112.947,112.947,0,0,1,1007.021,640.067Z" transform="translate(-387.399 -307.501)"/><path class="cls-4" d="M720.922,545.566c2.223-1.291,3.378-1.937,5.77-3.228,3.781-2.039,6.82-1.038,8.267,2.64A76.476,76.476,0,0,1,738.67,556.6c.908,3.677-.544,6.681-3.729,8.722-2.015,1.291-2.98,1.936-4.821,3.227C727.793,559.356,726.009,554.759,720.922,545.566Zm5.25,1.243a78.639,78.639,0,0,1,6.129,16.416c.713-.46,1.076-.69,1.811-1.15a2.616,2.616,0,0,0,1.111-3.27,77.337,77.337,0,0,0-4.125-11.952c-.693-1.641-1.7-1.843-2.874-1.195C727.393,546.119,726.982,546.349,726.172,546.809Z" transform="translate(-387.399 -307.501)"/><path class="cls-4" d="M757.082,553.044c-1.676.823-2.5,1.235-4.113,2.058-.435-1.527-.675-2.29-1.2-3.817-2,1-2.976,1.5-4.881,2.5.026,1.808.023,2.712-.015,4.521-1.379.749-2.054,1.124-3.378,1.873a102.578,102.578,0,0,0-2.415-25.06c2.546-1.194,3.852-1.791,6.527-2.986C752.907,540.5,754.733,544.682,757.082,553.044Zm-10.3-2.634c1.533-.786,2.314-1.179,3.9-1.965a67.443,67.443,0,0,0-5.068-10.659l-.079.037A98.42,98.42,0,0,1,746.783,550.41Z" transform="translate(-387.399 -307.501)"/><path class="cls-4" d="M771.205,546.479c-.25-.481-.4-.767-.463-2.638-.045-1.445-.082-2.167-.186-3.612-.153-2.134-1.234-2.514-3.382-1.587-.654.282-.98.423-1.627.7a74.211,74.211,0,0,1,.7,9.357c-1.786.816-2.665,1.224-4.393,2.04a73.889,73.889,0,0,0-4.12-22.983c2.943-1.231,4.446-1.847,7.512-3.078,5.263-2.115,8.151-1.283,8.793,2.263.13.722.191,1.083.306,1.806.376,2.363-.535,4.3-2.63,5.964l.008.066c2.543-.265,3.537,1.109,3.653,3.5.068,1.418.087,2.128.1,3.546a4.388,4.388,0,0,0,.5,2.568C774.041,545.232,773.086,545.648,771.205,546.479Zm-7.626-17.474c.715,2.823,1.01,4.235,1.483,7.058.744-.319,1.118-.478,1.87-.8,1.794-.76,2.845-1.815,2.528-3.654-.157-.906-.241-1.359-.423-2.265-.329-1.641-1.3-2.049-3.067-1.326C765.008,528.414,764.529,528.611,763.579,529.005Z" transform="translate(-387.399 -307.501)"/><path class="cls-4" d="M788.635,530.1c-.634,1.093-.952,1.639-1.59,2.732.014,2.824-.035,4.236-.238,7.06-2.017.816-3.014,1.224-4.98,2.039a73.548,73.548,0,0,0-1.81-22.982c2.172-.816,3.27-1.224,5.489-2.041a72.131,72.131,0,0,1,1.307,9.949l.1-.037c2.462-5.033,3.657-7.549,5.952-12.582,2.277-.816,3.426-1.224,5.745-2.04-2.651,5.232-4.024,7.849-6.84,13.081a65.606,65.606,0,0,1,7.011,9.9c-2.186.839-3.268,1.258-5.4,2.1A62.85,62.85,0,0,0,788.635,530.1Z" transform="translate(-387.399 -307.501)"/><path class="cls-4" d="M804.771,515.733c-.2-3.677,2.622-6.873,8.554-8.876s9.457-1,9.442,2.681a75.446,75.446,0,0,1-.856,11.952c-.506,3.676-4.088,6.872-9.576,8.875s-8.018,1-7.725-2.681A74.182,74.182,0,0,0,804.771,515.733Zm5.411,10.14c-.167,1.642.857,1.858,2.657,1.209s3.044-1.681,3.244-3.323a74.959,74.959,0,0,0,.66-12.411c-.029-1.641-1.277-1.857-3.179-1.208s-3.03,1.681-2.97,3.323A74.437,74.437,0,0,1,810.182,525.873Z" transform="translate(-387.399 -307.501)"/><path class="cls-4" d="M1186.319,425.927c-.191,2.236-.3,3.354-.53,5.59-.372,3.534-1.026,4.112-1.9,1.989-1.1-2.685-1.7-4.027-3.009-6.711a16.438,16.438,0,0,1-1.138-8.547c.193-2.236.272-3.354.4-5.59A77.441,77.441,0,0,1,1186.319,425.927Zm-1.05,1.639a81.776,81.776,0,0,0-4.338-9.478c-.065.8-.1,1.195-.172,1.991a5.594,5.594,0,0,0,.478,3.088c1.37,2.76,1.989,4.14,3.119,6.9.387.948.6.615.713-.509C1185.152,428.761,1185.192,428.362,1185.269,427.566Z" transform="translate(-387.399 -307.501)"/><path class="cls-4" d="M1176.474,439.514c.328-1.427.482-2.14.771-3.566.542.719.807,1.078,1.325,1.8.345-1.735.5-2.6.8-4.337-.43-1.207-.652-1.81-1.112-3.017.211-1.3.308-1.947.49-3.245a141.142,141.142,0,0,1,5.388,16.867c-.338,2.069-.521,3.1-.919,5.172A83.609,83.609,0,0,0,1176.474,439.514Zm3.681-3.856c-.235,1.362-.361,2.044-.628,3.406,1.393,2.016,2.043,3.024,3.257,5.04l.012-.064C1181.823,440.687,1181.3,439.011,1180.155,435.658Z" transform="translate(-387.399 -307.501)"/><path class="cls-4" d="M1173.323,450.885c.238.149.39.229.933,1.309.42.834.627,1.251,1.035,2.085.6,1.233,1.048.981,1.522-.626.144-.488.215-.732.354-1.22-1.019-2.161-1.548-3.242-2.652-5.4.413-1.414.608-2.121.979-3.534,2.7,5.307,3.895,7.961,6.081,13.269-.514,2.133-.789,3.2-1.382,5.332-1.018,3.663-2,4.232-2.947,2.184-.194-.417-.291-.625-.486-1.042a8.518,8.518,0,0,1-.5-4.985l-.018-.038c-.775,1.33-1.462.923-2.15-.461-.408-.819-.614-1.228-1.031-2.047-.328-.645-.583-1.086-.967-1.226C1172.607,453.044,1172.853,452.325,1173.323,450.885Zm6.546,7.519c-.707-1.63-1.07-2.445-1.819-4.075-.156.552-.235.829-.4,1.381a4.885,4.885,0,0,0,.013,3.523c.241.523.36.784.6,1.308.429.947.78.818,1.135-.434C1179.59,459.426,1179.685,459.085,1179.869,458.4Z" transform="translate(-387.399 -307.501)"/><path class="cls-4" d="M1170.012,468.67c.334-.922.5-1.383.841-2.306-.131-1.63-.976-2.445-1.851-4.075.612-1.414.906-2.12,1.47-3.534a32.864,32.864,0,0,1,4.192,13.269c-1.056,1.414-1.6,2.12-2.72,3.534-.385-2.3-.531-3.446-.774-5.744l-.054.065c-1.289,4.122-1.9,6.183-2.971,10.305-1.2,1.413-1.818,2.12-3.082,3.534,1.19-4.332,1.866-6.5,3.295-10.83-2.112-.976-3.2-1.464-5.467-2.439,1.441-1.453,2.145-2.179,3.519-3.631C1167.9,467.559,1168.614,467.929,1170.012,468.67Z" transform="translate(-387.399 -307.501)"/><path class="cls-4" d="M1161.128,483.969c.478,2.123-.893,5.232-4.368,8.7s-6.018,4.151-6.68,2.028a70.283,70.283,0,0,1-1.823-6.9c-.47-2.123,1.58-5.232,5.4-8.7s5.874-4.152,6.2-2.029C1160.267,479.829,1160.507,481.209,1161.128,483.969Zm-4.962-3.5c-.165-.947-.969-.6-2.195.524s-1.953,2.191-1.767,3.139a73.232,73.232,0,0,0,1.707,7.165c.27.948,1.126.6,2.27-.523s1.74-2.192,1.5-3.139C1156.946,484.769,1156.661,483.336,1156.166,480.47Z" transform="translate(-387.399 -307.501)"/><path class="cls-4" d="M794.657,748.085c-2.865-2.582-4.227-3.873-6.818-6.455-4.1-4.081-4.462-6.083-1.948-6.083h8.045c2.576,0,6,2,10.815,6.083,3.046,2.582,4.65,3.873,8.031,6.455ZM792.706,744h12.386c-1.105-.919-1.647-1.379-2.712-2.3-1.5-1.3-2.795-2.078-3.991-2.078h-8.615c-1.171,0-.822.779.516,2.078C791.239,742.624,791.722,743.084,792.706,744Z" transform="translate(-387.399 -307.501)"/><path class="cls-4" d="M781.5,717.075c1.192,1.646,1.817,2.47,3.128,4.116-.83.282-1.244.423-2.068.7,1.583,2,2.418,3,4.176,5.008,1.335.282,2.009.423,3.371.705,1.367,1.5,2.076,2.248,3.548,3.747-7.912-1.662-11.645-2.493-18.655-4.155-1.859-2.389-2.735-3.584-4.384-5.972C774.889,719.567,777.041,718.736,781.5,717.075Zm2.766,9.31c-1.341-1.573-1.985-2.359-3.22-3.932-2.3.771-3.435,1.157-5.7,1.928l.056.075C778.843,725.228,780.616,725.614,784.268,726.385Z" transform="translate(-387.399 -307.501)"/><path class="cls-4" d="M773.451,703.944c-.23.222-.366.371-1.439.371h-2.053c-1.2,0-1.259.815-.274,2.671.3.563.451.845.763,1.408h5.411c.943,1.633,1.441,2.449,2.5,4.082H765.123c-1.4-2.464-2.039-3.7-3.229-6.159-2.041-4.228-1.8-6.046.074-6.046h.957c1.258,0,2.422.854,3.685,2.671h.036c-.537-2.04.129-2.708,1.463-2.708H770.1c.631,0,1.082-.037,1.392-.445C772.22,701.451,772.612,702.282,773.451,703.944Zm-8.751,4.45h3.9c-.346-.637-.515-.956-.846-1.594-.79-1.521-1.556-2.448-2.555-2.448H763.97c-.883,0-.983.63-.268,2.077C764.09,707.215,764.29,707.608,764.7,708.394Z" transform="translate(-387.399 -307.501)"/><path class="cls-4" d="M762.739,689.514c.593.5.893.757,1.5,1.262h3.909c.494,1.632.765,2.448,1.359,4.08h-12.3c-.548-1.632-.8-2.448-1.268-4.08h5.1l-.022-.075c-2.716-2.107-4-3.16-6.434-5.267-.364-1.632-.527-2.448-.815-4.08,2.42,2.27,3.7,3.4,6.411,5.675,2.116-2.27,3.252-3.4,5.749-5.675.284,1.676.449,2.515.831,4.191C765.06,687.133,764.26,687.927,762.739,689.514Z" transform="translate(-387.399 -307.501)"/><path class="cls-4" d="M755.932,677.386c-1.881,0-3.25-2.189-3.517-6.195s.828-6.194,2.763-6.194h6.553c2.1,0,3.191,2.188,3.327,6.194s-.752,6.195-2.777,6.195Zm6.088-4.081c.913,0,1.208-.815,1.157-2.114s-.417-2.114-1.341-2.114h-6.714c-.852,0-1.139.815-1.057,2.114s.47,2.114,1.313,2.114Z" transform="translate(-387.399 -307.501)"/><path class="cls-4" d="M958.064,309.731c7.879,2.236,11.727,3.354,19.025,5.59,11.536,3.534,18.514,6.424,19.495,8.547a15.43,15.43,0,0,1,1.724,6.711c.122,2.123-4.639,1.545-14.521-1.989-6.252-2.236-9.452-3.354-15.993-5.59C966.184,317.693,964.354,315.039,958.064,309.731Zm14.084,5.429c3.351,3.792,4.395,5.687,5.432,9.479,2.327.8,3.482,1.194,5.771,1.991,3.231,1.124,5.116,1.458,4.93.511a17.015,17.015,0,0,0-2.81-6.9c-.591-.948-3.031-1.964-6.725-3.088C976.128,316.355,974.808,315.957,972.148,315.16Z" transform="translate(-387.399 -307.501)"/><path class="cls-4" d="M1037.731,349.856c-3.235-1.426-4.885-2.139-8.252-3.566a18.933,18.933,0,0,0-.237-3.017c-4.271-1.735-6.456-2.6-10.923-4.338-.9.719-1.369,1.079-2.35,1.8-3.245-1.3-4.894-1.946-8.244-3.243,5.124-3.869,6.874-5.8,6.614-9.673,5.6,2.069,8.291,3.1,13.455,5.173C1034.864,339.735,1038.213,343.109,1037.731,349.856Zm-17.806-12.272c3.584,1.362,5.346,2.043,8.807,3.406-.811-3.353-2.675-5.029-6.24-8.381l-.164-.065C1022.491,334.56,1022.224,335.568,1019.925,337.584Z" transform="translate(-387.399 -307.501)"/><path class="cls-4" d="M1061.818,361.227c-.013-.534.835-.871.757-1.951-.06-.834-.1-1.251-.2-2.085-.15-1.233-1.448-2.395-4.4-4-.9-.488-1.354-.733-2.275-1.221.537,2.161.4,3.241-1.655,5.4-2.926-1.413-4.422-2.12-7.48-3.533,4.451-5.308,1.546-7.962-.966-13.27,4.7,2.133,6.943,3.2,11.231,5.333,7.362,3.662,10.312,6.24,10.672,8.288.072.417.107.626.171,1.043.211,1.364-.932,1.5-3.618.36l.005.037c3.157,2.2,4.148,3.767,4.193,5.151.026.819.029,1.229.014,2.048-.011.644.38,1.15.456,2C1066.027,363.386,1064.647,362.666,1061.818,361.227ZM1053.862,346c.588,1.631.856,2.446,1.324,4.076,1.067.553,1.593.829,2.634,1.381,2.479,1.317,3.855,1.779,3.613.719-.12-.524-.184-.786-.317-1.309-.241-.948-1.382-1.911-3.85-3.164C1055.925,347.02,1055.244,346.679,1053.862,346Z" transform="translate(-387.399 -307.501)"/><path class="cls-4" d="M1082.057,368.434l-1.669.122a33.014,33.014,0,0,1-.854,4.075c-1.784-1.413-2.711-2.12-4.642-3.534a36.655,36.655,0,0,0,.206-13.269c2.372,1.413,3.517,2.12,5.733,3.534a39.6,39.6,0,0,1-.053,5.743l.092.064c2.793-.472,4.17-.709,6.893-1.181,2.021,1.413,3,2.12,4.874,3.533-2.9.4-4.377.6-7.367,1a37.764,37.764,0,0,1,3.624,12.269c-1.505-1.452-2.292-2.178-3.938-3.629A38.156,38.156,0,0,0,1082.057,368.434Z" transform="translate(-387.399 -307.501)"/><path class="cls-4" d="M1096.315,374.142c.565-2.122,3.211-1.441,7.028,2.029s5.1,6.577,4.075,8.7a45.237,45.237,0,0,1-4,6.9c-1.444,2.122-3.657,1.44-6.483-2.029s-4.01-6.578-3.061-8.7A37.959,37.959,0,0,0,1096.315,374.142Zm.938,10.567c-.5.948-.073,2.014.891,3.139s1.774,1.47,2.352.522a42.371,42.371,0,0,0,3.631-7.165c.389-.948-.194-2.015-1.389-3.139s-2.087-1.47-2.4-.522A39.77,39.77,0,0,1,1097.253,384.709Z" transform="translate(-387.399 -307.501)"/><path class="cls-4" d="M1028.585,746.825c-4.377-1.291-6.574-1.937-10.979-3.228-6.962-2.04-11.015-5.044-11.429-8.722a38.267,38.267,0,0,1,.209-11.622c.521-3.677,4.365-4.678,10.99-2.639,4.191,1.291,6.29,1.937,10.485,3.227C1025.916,733.035,1025.835,737.631,1028.585,746.825Zm-7.734-5.324c-1.334-6.567-1.3-9.85-.251-16.416l-3.759-1.15c-2.122-.649-3.522-.448-3.736,1.193a38.087,38.087,0,0,0-.022,11.952c.217,1.641,1.677,2.622,3.876,3.271Z" transform="translate(-387.399 -307.501)"/><path class="cls-4" d="M977.89,708.336c2.607.824,3.915,1.236,6.54,2.06-.075,1.808-.079,2.712-.01,4.521,3.235,1,4.859,1.5,8.113,2.5.806-1.527,1.241-2.291,2.17-3.818,2.408.75,3.615,1.124,6.033,1.874-5.159,8.362-6.934,12.543-7.834,20.906-4.1-1.2-6.144-1.792-10.233-2.987C978.165,723.372,977.443,718.36,977.89,708.336Zm13.239,11.945c-2.576-.787-3.862-1.18-6.429-1.966a44.444,44.444,0,0,0,2.769,12.587l.125.037A40.177,40.177,0,0,1,991.129,720.281Z" transform="translate(-387.399 -307.501)"/><path class="cls-4" d="M957.373,701.771c.1.7.162,1.138-.5,3.009-.509,1.444-.74,2.167-1.15,3.612-.607,2.134.553,3.33,3.532,4.257l2.264.705A49.18,49.18,0,0,1,964.262,704c2.54.816,3.815,1.224,6.377,2.04-3.3,9.193-4.105,13.79-2.911,22.983-4.19-1.232-6.28-1.847-10.44-3.079-7.144-2.114-10.365-4.763-10.105-8.31.053-.722.087-1.083.169-1.8.268-2.364,1.966-3.448,5.029-3.293l.012-.067c-3.123-1.775-3.8-3.816-3.051-6.212.441-1.419.686-2.128,1.222-3.547a4.8,4.8,0,0,0,.448-3.013C953.543,700.525,954.815,700.94,957.373,701.771Zm3.215,21.925a37.4,37.4,0,0,1,.385-7.058l-2.6-.8c-2.471-.761-4.095-.633-4.288,1.2-.1.906-.131,1.359-.18,2.265-.089,1.642.981,2.68,3.394,3.4Z" transform="translate(-387.399 -307.501)"/><path class="cls-4" d="M931.816,703.717c1.052-.588,1.583-.882,2.657-1.47a58.771,58.771,0,0,1,3-7.06c2.416.816,3.633,1.225,6.082,2.041-4.246,9.193-5.564,13.789-5.461,22.982-2.706-.816-4.054-1.224-6.736-2.04a38.59,38.59,0,0,1,1.315-9.948l-.117-.038c-4.267,2.926-6.264,4.389-9.924,7.315-2.649-.816-3.967-1.224-6.587-2.04,4.027-2.962,6.211-4.444,10.855-7.407a50.829,50.829,0,0,1-3.143-15.575c2.4.838,3.606,1.257,6.042,2.1A51.274,51.274,0,0,0,931.816,703.717Z" transform="translate(-387.399 -307.501)"/><path class="cls-4" d="M910.752,705.959c-.916,3.677-4.582,4.685-10.822,2.682s-9.155-5.2-7.853-8.877a58.987,58.987,0,0,1,5.642-11.95c2.143-3.678,6.512-4.684,11.981-2.682s7.268,5.2,5.482,8.876A51.279,51.279,0,0,0,910.752,705.959Zm-1.307-14.22c.855-1.642.076-2.674-1.73-3.323s-3.315-.433-4.226,1.209a56.133,56.133,0,0,0-5.431,12.41c-.516,1.641.579,2.673,2.563,3.321s3.365.435,3.821-1.207A53.487,53.487,0,0,1,909.445,691.739Z" transform="translate(-387.399 -307.501)"/><path class="cls-4" d="M779.068,428.109h11.6c7.293,0,10.9,2.313,10.909,6.559.013,5.369-.043,8.053-.257,13.421-.169,4.246-3.8,6.559-11,6.559H778.843C779.238,444.032,779.311,438.725,779.068,428.109Zm7.415,3.791c.1,7.583.045,11.374-.221,18.957h4.085c2.3,0,3.706-.683,3.772-2.578.191-5.52.239-8.28.213-13.8-.01-1.9-1.409-2.579-3.729-2.579Z" transform="translate(-387.399 -307.501)"/><path class="cls-4" d="M832.623,454.648h-6.946c-.309-1.926-.474-2.889-.824-4.815h-8.589c-.6,1.926-.906,2.889-1.532,4.815h-6.457c3.58-10.616,5.239-15.923,7.88-26.539h10.376A187.787,187.787,0,0,1,832.623,454.648Zm-15.271-8.417h6.768c-1.036-5.368-1.633-8.052-2.991-13.421H821C819.68,438.179,818.939,440.863,817.352,446.231Z" transform="translate(-387.399 -307.501)"/><path class="cls-4" d="M854.381,454.648c-.276-.683-.458-1.1-.215-3.261.187-1.668.273-2.5.426-4.17.226-2.464-1.069-3.374-4.163-3.374h-2.355c-.289,4.322-.494,6.483-1,10.805h-6.76a175.247,175.247,0,0,0,1.241-26.539H851.99c7.13,0,10.2,2.01,10.094,6.1-.022.834-.036,1.251-.069,2.085-.107,2.73-1.639,4.474-4.712,5.346l0,.076c3.328.872,4.279,2.843,4,5.61-.166,1.638-.258,2.457-.459,4.1a5.071,5.071,0,0,0,.3,3.223ZM848.506,431.9c-.014,3.261-.059,4.891-.215,8.151h2.675c2.546,0,4.136-.682,4.219-2.805.04-1.046.057-1.569.082-2.616.045-1.895-1.011-2.73-3.446-2.73Z" transform="translate(-387.399 -307.501)"/><path class="cls-4" d="M879.054,444.07c-.916.971-1.377,1.456-2.3,2.427-.385,3.26-.619,4.89-1.158,8.151h-6.508a139.892,139.892,0,0,0,2.042-26.539h6.722c.011,4.6-.081,6.893-.428,11.488h.121c3.77-4.595,5.592-6.893,9.035-11.488h6.611c-3.706,4.732-5.67,7.1-9.732,11.829a126.915,126.915,0,0,1,6.942,14.71h-6.548C882.122,450.417,881.162,448.3,879.054,444.07Z" transform="translate(-387.399 -307.501)"/><path class="cls-4" d="M899.319,434.479c.274-4.246,3.78-6.673,10.134-6.673s9.748,2.427,9.368,6.673a106,106,0,0,1-2.026,13.8c-.856,4.245-4.765,6.672-10.847,6.672s-8.925-2.427-8.226-6.672A117.207,117.207,0,0,0,899.319,434.479Zm4.694,14.065c-.338,1.9.767,2.616,2.754,2.616s3.391-.72,3.753-2.616a109.24,109.24,0,0,0,1.95-14.331c.15-1.9-1.105-2.616-3.156-2.616s-3.369.721-3.5,2.616A112.993,112.993,0,0,1,904.013,448.544Z" transform="translate(-387.399 -307.501)"/></g></svg>